<?xml version='1.0' encoding='UTF-8' standalone='no'?>
<!-- Created with Fritzing (http://www.fritzing.org/) -->
<svg xmlns:svg='http://www.w3.org/2000/svg' xmlns='http://www.w3.org/2000/svg' version='1.2' baseProfile='tiny' x='0in' y='0in' width='1.95833in' height='3.74245in' viewBox='0 0 141 269.456' >
<g partID='57550'><g transform='translate(3.5765,78.7067)' ><g  id="breadboardbreadboard">
 <g  id="background">
  <rect  height="100.914" fill="#D9D9D9" width="129.839"/>
 </g>
 <rect  height="7.252" y="46.83" x="19.67" fill="#CCC9C9" width="90.5"/>
 <g transform="matrix(1, 0, 0, 1, -4.5, -9)">
  <g  id="sockets">
   <g  id="A1pin">
    <path  d="M9.427,19.858c0,-1.322,1.071,-2.396,2.395,-2.396c1.324,0,2.394,1.072,2.394,2.396" fill="#BFBFBF"/>
    <path  d="M14.214,19.858c0,1.319,-1.07,2.393,-2.394,2.393c-1.324,0,-2.395,-1.072,-2.395,-2.393" fill="#E6E6E6"/>
    <circle  cy="19.857" r="1.196" fill="#383838" cx="11.822"/>
   </g>
   <g  id="B1pin">
    <path  d="M9.427,27.058c0,-1.322,1.071,-2.396,2.395,-2.396c1.324,0,2.394,1.071,2.394,2.396" fill="#BFBFBF"/>
    <path  d="M14.214,27.058c0,1.321,-1.07,2.393,-2.394,2.393c-1.324,0,-2.395,-1.07,-2.395,-2.393l0,0" fill="#E6E6E6"/>
    <circle  cy="27.057" r="1.197" fill="#383838" cx="11.822"/>
   </g>
   <g  id="C1pin">
    <path  d="M9.427,34.256c0,-1.319,1.071,-2.394,2.395,-2.394c1.324,0,2.394,1.072,2.394,2.394" fill="#BFBFBF"/>
    <path  d="M14.214,34.256c0,1.322,-1.07,2.396,-2.394,2.396c-1.324,0,-2.395,-1.072,-2.395,-2.396" fill="#E6E6E6"/>
    <circle  cy="34.257" r="1.196" fill="#383838" cx="11.822"/>
   </g>
   <g  id="D1pin">
    <path  d="M9.427,41.457c0,-1.322,1.071,-2.396,2.395,-2.396c1.324,0,2.394,1.072,2.394,2.396" fill="#BFBFBF"/>
    <path  d="M14.214,41.457c0,1.321,-1.07,2.394,-2.394,2.394c-1.324,0,-2.395,-1.07,-2.395,-2.394l0,0" fill="#E6E6E6"/>
    <circle  cy="41.457" r="1.197" fill="#383838" cx="11.822"/>
   </g>
   <g  id="E1pin">
    <path  d="M9.427,48.657c0,-1.322,1.071,-2.394,2.395,-2.394c1.324,0,2.394,1.07,2.394,2.394" fill="#BFBFBF"/>
    <path  d="M14.214,48.657c0,1.322,-1.07,2.395,-2.394,2.395c-1.324,0,-2.395,-1.072,-2.395,-2.395l0,0" fill="#E6E6E6"/>
    <circle  cy="48.657" r="1.197" fill="#383838" cx="11.822"/>
   </g>
   <g  id="A2pin">
    <path  d="M16.627,19.858c0,-1.322,1.071,-2.396,2.395,-2.396c1.32,0,2.394,1.072,2.394,2.396" fill="#BFBFBF"/>
    <path  d="M21.414,19.858c0,1.319,-1.07,2.393,-2.393,2.395c-1.322,0,-2.396,-1.07,-2.396,-2.393c0,-0.002,0,-0.002,0,-0.002" fill="#E6E6E6"/>
    <circle  cy="19.857" r="1.196" fill="#383838" cx="19.022"/>
   </g>
   <g  id="B2pin">
    <path  d="M16.627,27.058c0,-1.322,1.071,-2.396,2.395,-2.396c1.32,0,2.394,1.071,2.394,2.396" fill="#BFBFBF"/>
    <path  d="M21.414,27.058c0,1.321,-1.07,2.395,-2.393,2.395c-1.322,0.002,-2.396,-1.07,-2.396,-2.393l0,-0.002" fill="#E6E6E6"/>
    <circle  cy="27.057" r="1.197" fill="#383838" cx="19.022"/>
   </g>
   <g  id="C2pin">
    <path  d="M16.627,34.256c0,-1.319,1.071,-2.394,2.395,-2.394c1.32,0,2.394,1.072,2.394,2.394" fill="#BFBFBF"/>
    <path  d="M21.414,34.256c0,1.322,-1.07,2.396,-2.393,2.396c-1.323,0,-2.396,-1.069,-2.396,-2.393c0,-0.002,0,-0.002,0,-0.004" fill="#E6E6E6"/>
    <circle  cy="34.257" r="1.196" fill="#383838" cx="19.022"/>
   </g>
   <g  id="D2pin">
    <path  d="M16.627,41.457c0,-1.322,1.071,-2.396,2.395,-2.396c1.32,0,2.394,1.072,2.394,2.396" fill="#BFBFBF"/>
    <path  d="M21.414,41.457c0,1.321,-1.07,2.396,-2.393,2.396c-1.323,0,-2.396,-1.07,-2.396,-2.394l0,-0.002" fill="#E6E6E6"/>
    <circle  cy="41.457" r="1.197" fill="#383838" cx="19.022"/>
   </g>
   <g  id="E2pin">
    <path  d="M16.627,48.657c0,-1.322,1.071,-2.394,2.395,-2.394c1.32,0,2.394,1.07,2.394,2.394" fill="#BFBFBF"/>
    <path  d="M21.414,48.657c0,1.322,-1.07,2.395,-2.393,2.395c-1.322,0.002,-2.396,-1.07,-2.396,-2.391c0,-0.002,0,-0.002,0,-0.004" fill="#E6E6E6"/>
    <circle  cy="48.657" r="1.197" fill="#383838" cx="19.022"/>
   </g>
   <g  id="A3pin">
    <path  d="M23.826,19.858c0,-1.322,1.072,-2.396,2.395,-2.396c1.321,0,2.395,1.072,2.395,2.396" fill="#BFBFBF"/>
    <path  d="M28.615,19.858c0,1.319,-1.072,2.393,-2.395,2.393c-1.321,0,-2.395,-1.072,-2.395,-2.393l0,0" fill="#E6E6E6"/>
    <circle  cy="19.857" r="1.196" fill="#383838" cx="26.221"/>
   </g>
   <g  id="B3pin">
    <path  d="M23.826,27.058c0,-1.322,1.072,-2.396,2.395,-2.396c1.321,0,2.395,1.071,2.395,2.396" fill="#BFBFBF"/>
    <path  d="M28.615,27.058c0,1.321,-1.072,2.393,-2.395,2.393c-1.321,0,-2.395,-1.07,-2.395,-2.393" fill="#E6E6E6"/>
    <circle  cy="27.057" r="1.197" fill="#383838" cx="26.221"/>
   </g>
   <g  id="C3pin">
    <path  d="M23.826,34.256c0,-1.319,1.072,-2.394,2.395,-2.394c1.321,0,2.395,1.072,2.395,2.394" fill="#BFBFBF"/>
    <path  d="M28.615,34.256c0,1.322,-1.072,2.396,-2.395,2.396c-1.321,0,-2.395,-1.072,-2.395,-2.396l0,0" fill="#E6E6E6"/>
    <circle  cy="34.257" r="1.196" fill="#383838" cx="26.221"/>
   </g>
   <g  id="D3pin">
    <path  d="M23.826,41.457c0,-1.322,1.072,-2.396,2.395,-2.396c1.321,0,2.395,1.072,2.395,2.396" fill="#BFBFBF"/>
    <path  d="M28.615,41.457c0,1.321,-1.072,2.394,-2.395,2.394c-1.321,0,-2.395,-1.07,-2.395,-2.394" fill="#E6E6E6"/>
    <circle  cy="41.457" r="1.197" fill="#383838" cx="26.221"/>
   </g>
   <g  id="E3pin">
    <path  d="M23.826,48.657c0,-1.322,1.072,-2.394,2.395,-2.394c1.321,0,2.395,1.07,2.395,2.394" fill="#BFBFBF"/>
    <path  d="M28.615,48.657c0,1.322,-1.072,2.395,-2.395,2.395c-1.321,0,-2.395,-1.072,-2.395,-2.395" fill="#E6E6E6"/>
    <circle  cy="48.657" r="1.197" fill="#383838" cx="26.221"/>
   </g>
   <g  id="A4pin">
    <path  d="M31.028,19.858c0,-1.322,1.072,-2.396,2.394,-2.396c1.322,0,2.395,1.072,2.395,2.396" fill="#BFBFBF"/>
    <path  d="M35.815,19.858c0,1.319,-1.071,2.393,-2.395,2.393c-1.32,0,-2.394,-1.072,-2.394,-2.393l0,0" fill="#E6E6E6"/>
    <circle  cy="19.857" r="1.196" fill="#383838" cx="33.42"/>
   </g>
   <g  id="B4pin">
    <path  d="M31.028,27.058c0,-1.322,1.072,-2.396,2.394,-2.396c1.322,0,2.395,1.071,2.395,2.396" fill="#BFBFBF"/>
    <path  d="M35.815,27.058c0,1.321,-1.071,2.393,-2.395,2.393c-1.32,0,-2.394,-1.07,-2.394,-2.393" fill="#E6E6E6"/>
    <circle  cy="27.057" r="1.197" fill="#383838" cx="33.42"/>
   </g>
   <g  id="C4pin">
    <path  d="M31.028,34.256c0,-1.319,1.072,-2.394,2.394,-2.394c1.322,0,2.395,1.072,2.395,2.394" fill="#BFBFBF"/>
    <path  d="M35.815,34.256c0,1.322,-1.071,2.396,-2.395,2.396c-1.32,0,-2.394,-1.072,-2.394,-2.396l0,0" fill="#E6E6E6"/>
    <circle  cy="34.257" r="1.196" fill="#383838" cx="33.42"/>
   </g>
   <g  id="D4pin">
    <path  d="M31.028,41.457c0,-1.322,1.072,-2.396,2.394,-2.396c1.322,0,2.395,1.072,2.395,2.396" fill="#BFBFBF"/>
    <path  d="M35.815,41.457c0,1.321,-1.071,2.394,-2.395,2.394c-1.32,0,-2.394,-1.07,-2.394,-2.394" fill="#E6E6E6"/>
    <circle  cy="41.457" r="1.197" fill="#383838" cx="33.42"/>
   </g>
   <g  id="E4pin">
    <path  d="M31.028,48.657c0,-1.322,1.072,-2.394,2.394,-2.394c1.322,0,2.395,1.07,2.395,2.394" fill="#BFBFBF"/>
    <path  d="M35.815,48.657c0,1.322,-1.071,2.395,-2.395,2.395c-1.32,0,-2.394,-1.072,-2.394,-2.395" fill="#E6E6E6"/>
    <circle  cy="48.657" r="1.197" fill="#383838" cx="33.42"/>
   </g>
   <g  id="A5pin">
    <path  d="M38.228,19.858c0,-1.322,1.07,-2.396,2.394,-2.396c1.324,0,2.395,1.072,2.395,2.396" fill="#BFBFBF"/>
    <path  d="M43.015,19.858c0,1.319,-1.071,2.393,-2.395,2.393c-1.324,0,-2.394,-1.072,-2.394,-2.393l0,0" fill="#E6E6E6"/>
    <circle  cy="19.857" r="1.196" fill="#383838" cx="40.62"/>
   </g>
   <g  id="B5pin">
    <path  d="M38.228,27.058c0,-1.322,1.07,-2.396,2.394,-2.396c1.324,0,2.395,1.071,2.395,2.396" fill="#BFBFBF"/>
    <path  d="M43.015,27.058c0,1.321,-1.071,2.393,-2.395,2.393c-1.324,0,-2.394,-1.07,-2.394,-2.393" fill="#E6E6E6"/>
    <circle  cy="27.057" r="1.197" fill="#383838" cx="40.62"/>
   </g>
   <g  id="C5pin">
    <path  d="M38.228,34.256c0,-1.319,1.07,-2.394,2.394,-2.394c1.324,0,2.395,1.072,2.395,2.394" fill="#BFBFBF"/>
    <path  d="M43.015,34.256c0,1.322,-1.071,2.396,-2.395,2.396c-1.324,0,-2.394,-1.072,-2.394,-2.396l0,0" fill="#E6E6E6"/>
    <circle  cy="34.257" r="1.196" fill="#383838" cx="40.62"/>
   </g>
   <g  id="D5pin">
    <path  d="M38.228,41.457c0,-1.322,1.07,-2.396,2.394,-2.396c1.324,0,2.395,1.072,2.395,2.396" fill="#BFBFBF"/>
    <path  d="M43.015,41.457c0,1.321,-1.071,2.394,-2.395,2.394c-1.324,0,-2.394,-1.07,-2.394,-2.394" fill="#E6E6E6"/>
    <circle  cy="41.457" r="1.197" fill="#383838" cx="40.62"/>
   </g>
   <g  id="E5pin">
    <path  d="M38.228,48.657c0,-1.322,1.07,-2.394,2.394,-2.394c1.324,0,2.395,1.07,2.395,2.394" fill="#BFBFBF"/>
    <path  d="M43.015,48.657c0,1.322,-1.071,2.395,-2.395,2.395c-1.324,0,-2.394,-1.072,-2.394,-2.395" fill="#E6E6E6"/>
    <circle  cy="48.657" r="1.197" fill="#383838" cx="40.62"/>
   </g>
   <g  id="A6pin">
    <path  d="M45.427,19.858c0,-1.322,1.071,-2.396,2.395,-2.396c1.324,0,2.394,1.072,2.394,2.396" fill="#BFBFBF"/>
    <path  d="M50.214,19.858c0,1.319,-1.07,2.393,-2.394,2.393c-1.324,0,-2.395,-1.072,-2.395,-2.393l0,0" fill="#E6E6E6"/>
    <circle  cy="19.857" r="1.196" fill="#383838" cx="47.822"/>
   </g>
   <g  id="B6pin">
    <path  d="M45.427,27.058c0,-1.322,1.071,-2.396,2.395,-2.396c1.324,0,2.394,1.071,2.394,2.396" fill="#BFBFBF"/>
    <path  d="M50.214,27.058c0,1.321,-1.07,2.393,-2.394,2.393c-1.324,0,-2.395,-1.07,-2.395,-2.393" fill="#E6E6E6"/>
    <circle  cy="27.057" r="1.197" fill="#383838" cx="47.822"/>
   </g>
   <g  id="C6pin">
    <path  d="M45.427,34.256c0,-1.319,1.071,-2.394,2.395,-2.394c1.324,0,2.394,1.072,2.394,2.394" fill="#BFBFBF"/>
    <path  d="M50.214,34.256c0,1.322,-1.07,2.396,-2.394,2.396c-1.324,0,-2.395,-1.072,-2.395,-2.396l0,0" fill="#E6E6E6"/>
    <circle  cy="34.257" r="1.196" fill="#383838" cx="47.822"/>
   </g>
   <g  id="D6pin">
    <path  d="M45.427,41.457c0,-1.322,1.071,-2.396,2.395,-2.396c1.324,0,2.394,1.072,2.394,2.396" fill="#BFBFBF"/>
    <path  d="M50.214,41.457c0,1.321,-1.07,2.394,-2.394,2.394c-1.324,0,-2.395,-1.07,-2.395,-2.394" fill="#E6E6E6"/>
    <circle  cy="41.457" r="1.197" fill="#383838" cx="47.822"/>
   </g>
   <g  id="E6pin">
    <path  d="M45.427,48.657c0,-1.322,1.071,-2.394,2.395,-2.394c1.324,0,2.394,1.07,2.394,2.394" fill="#BFBFBF"/>
    <path  d="M50.214,48.657c0,1.322,-1.07,2.395,-2.394,2.395c-1.324,0,-2.395,-1.072,-2.395,-2.395" fill="#E6E6E6"/>
    <circle  cy="48.657" r="1.197" fill="#383838" cx="47.822"/>
   </g>
   <g  id="A7pin">
    <path  d="M52.627,19.858c0,-1.322,1.071,-2.396,2.395,-2.396c1.32,0,2.394,1.072,2.394,2.396" fill="#BFBFBF"/>
    <path  d="M57.414,19.858c0,1.319,-1.072,2.393,-2.394,2.393s-2.395,-1.072,-2.395,-2.393l0,0" fill="#E6E6E6"/>
    <circle  cy="19.857" r="1.196" fill="#383838" cx="55.022"/>
   </g>
   <g  id="B7pin">
    <path  d="M52.627,27.058c0,-1.322,1.071,-2.396,2.395,-2.396c1.32,0,2.394,1.071,2.394,2.396" fill="#BFBFBF"/>
    <path  d="M57.414,27.058c0,1.321,-1.072,2.393,-2.394,2.393s-2.395,-1.07,-2.395,-2.393" fill="#E6E6E6"/>
    <circle  cy="27.057" r="1.197" fill="#383838" cx="55.022"/>
   </g>
   <g  id="C7pin">
    <path  d="M52.627,34.256c0,-1.319,1.071,-2.394,2.395,-2.394c1.32,0,2.394,1.072,2.394,2.394" fill="#BFBFBF"/>
    <path  d="M57.414,34.256c0,1.322,-1.072,2.396,-2.394,2.396s-2.395,-1.072,-2.395,-2.396l0,0" fill="#E6E6E6"/>
    <circle  cy="34.257" r="1.196" fill="#383838" cx="55.022"/>
   </g>
   <g  id="D7pin">
    <path  d="M52.627,41.457c0,-1.322,1.071,-2.396,2.395,-2.396c1.32,0,2.394,1.072,2.394,2.396" fill="#BFBFBF"/>
    <path  d="M57.414,41.457c0,1.321,-1.072,2.394,-2.394,2.394s-2.395,-1.07,-2.395,-2.394" fill="#E6E6E6"/>
    <circle  cy="41.457" r="1.197" fill="#383838" cx="55.022"/>
   </g>
   <g  id="E7pin">
    <path  d="M52.627,48.657c0,-1.322,1.071,-2.394,2.395,-2.394c1.32,0,2.394,1.07,2.394,2.394" fill="#BFBFBF"/>
    <path  d="M57.414,48.657c0,1.322,-1.072,2.395,-2.394,2.395s-2.395,-1.072,-2.395,-2.395" fill="#E6E6E6"/>
    <circle  cy="48.657" r="1.197" fill="#383838" cx="55.022"/>
   </g>
   <g  id="A8pin">
    <path  d="M59.826,19.858c0,-1.322,1.072,-2.396,2.395,-2.396c1.321,0,2.393,1.072,2.393,2.396" fill="#BFBFBF"/>
    <path  d="M64.614,19.858c0,1.319,-1.07,2.393,-2.393,2.393c-1.323,0,-2.395,-1.072,-2.395,-2.393l0,0" fill="#E6E6E6"/>
    <circle  cy="19.857" r="1.196" fill="#383838" cx="62.221"/>
   </g>
   <g  id="B8pin">
    <path  d="M59.826,27.058c0,-1.322,1.072,-2.396,2.395,-2.396c1.321,0,2.393,1.071,2.393,2.396" fill="#BFBFBF"/>
    <path  d="M64.614,27.058c0,1.321,-1.07,2.393,-2.393,2.393c-1.323,0,-2.395,-1.07,-2.395,-2.393" fill="#E6E6E6"/>
    <circle  cy="27.057" r="1.197" fill="#383838" cx="62.221"/>
   </g>
   <g  id="C8pin">
    <path  d="M59.826,34.256c0,-1.319,1.072,-2.394,2.395,-2.394c1.321,0,2.393,1.072,2.393,2.394" fill="#BFBFBF"/>
    <path  d="M64.614,34.256c0,1.322,-1.07,2.396,-2.393,2.396c-1.323,0,-2.395,-1.072,-2.395,-2.396l0,0" fill="#E6E6E6"/>
    <circle  cy="34.257" r="1.196" fill="#383838" cx="62.221"/>
   </g>
   <g  id="D8pin">
    <path  d="M59.826,41.457c0,-1.322,1.072,-2.396,2.395,-2.396c1.321,0,2.393,1.072,2.393,2.396" fill="#BFBFBF"/>
    <path  d="M64.614,41.457c0,1.321,-1.07,2.394,-2.393,2.394c-1.323,0,-2.395,-1.07,-2.395,-2.394" fill="#E6E6E6"/>
    <circle  cy="41.457" r="1.197" fill="#383838" cx="62.221"/>
   </g>
   <g  id="E8pin">
    <path  d="M59.826,48.657c0,-1.322,1.072,-2.394,2.395,-2.394c1.321,0,2.393,1.07,2.393,2.394" fill="#BFBFBF"/>
    <path  d="M64.614,48.657c0,1.322,-1.07,2.395,-2.393,2.395c-1.323,0,-2.395,-1.072,-2.395,-2.395" fill="#E6E6E6"/>
    <circle  cy="48.657" r="1.197" fill="#383838" cx="62.221"/>
   </g>
   <g  id="A9pin">
    <path  d="M67.028,19.858c0,-1.322,1.072,-2.396,2.393,-2.396c1.323,0,2.396,1.072,2.396,2.396" fill="#BFBFBF"/>
    <path  d="M71.815,19.858c0,1.319,-1.071,2.393,-2.396,2.393c-1.319,0,-2.393,-1.072,-2.393,-2.393l0,0" fill="#E6E6E6"/>
    <circle  cy="19.857" r="1.196" fill="#383838" cx="69.42"/>
   </g>
   <g  id="B9pin">
    <path  d="M67.028,27.058c0,-1.322,1.072,-2.396,2.393,-2.396c1.323,0,2.396,1.071,2.396,2.396" fill="#BFBFBF"/>
    <path  d="M71.815,27.058c0,1.321,-1.071,2.393,-2.396,2.393c-1.319,0,-2.393,-1.07,-2.393,-2.393" fill="#E6E6E6"/>
    <circle  cy="27.057" r="1.197" fill="#383838" cx="69.42"/>
   </g>
   <g  id="C9pin">
    <path  d="M67.028,34.256c0,-1.319,1.072,-2.394,2.393,-2.394c1.323,0,2.396,1.072,2.396,2.394" fill="#BFBFBF"/>
    <path  d="M71.815,34.256c0,1.322,-1.071,2.396,-2.396,2.396c-1.319,0,-2.393,-1.072,-2.393,-2.396l0,0" fill="#E6E6E6"/>
    <circle  cy="34.257" r="1.196" fill="#383838" cx="69.42"/>
   </g>
   <g  id="D9pin">
    <path  d="M67.028,41.457c0,-1.322,1.072,-2.396,2.393,-2.396c1.323,0,2.396,1.072,2.396,2.396" fill="#BFBFBF"/>
    <path  d="M71.815,41.457c0,1.321,-1.071,2.394,-2.396,2.394c-1.319,0,-2.393,-1.07,-2.393,-2.394" fill="#E6E6E6"/>
    <circle  cy="41.457" r="1.197" fill="#383838" cx="69.42"/>
   </g>
   <g  id="E9pin">
    <path  d="M67.028,48.657c0,-1.322,1.072,-2.394,2.393,-2.394c1.323,0,2.396,1.07,2.396,2.394" fill="#BFBFBF"/>
    <path  d="M71.815,48.657c0,1.322,-1.071,2.395,-2.396,2.395c-1.319,0,-2.393,-1.072,-2.393,-2.395" fill="#E6E6E6"/>
    <circle  cy="48.657" r="1.197" fill="#383838" cx="69.42"/>
   </g>
   <g  id="A10pin">
    <path  d="M74.227,19.858c0,-1.322,1.071,-2.396,2.396,-2.396c1.323,0,2.394,1.072,2.394,2.396" fill="#BFBFBF"/>
    <path  d="M79.014,19.858c0,1.319,-1.07,2.393,-2.394,2.393c-1.324,0,-2.396,-1.072,-2.396,-2.393l0,0" fill="#E6E6E6"/>
    <circle  cy="19.857" r="1.196" fill="#383838" cx="76.621"/>
   </g>
   <g  id="B10pin">
    <path  d="M74.227,27.058c0,-1.322,1.071,-2.396,2.396,-2.396c1.323,0,2.394,1.071,2.394,2.396" fill="#BFBFBF"/>
    <path  d="M79.014,27.058c0,1.321,-1.07,2.393,-2.394,2.393c-1.324,0,-2.396,-1.07,-2.396,-2.393" fill="#E6E6E6"/>
    <circle  cy="27.057" r="1.197" fill="#383838" cx="76.621"/>
   </g>
   <g  id="C10pin">
    <path  d="M74.227,34.256c0,-1.319,1.071,-2.394,2.396,-2.394c1.323,0,2.394,1.072,2.394,2.394" fill="#BFBFBF"/>
    <path  d="M79.014,34.256c0,1.322,-1.07,2.396,-2.394,2.396c-1.324,0,-2.396,-1.072,-2.396,-2.396l0,0" fill="#E6E6E6"/>
    <circle  cy="34.257" r="1.196" fill="#383838" cx="76.621"/>
   </g>
   <g  id="D10pin">
    <path  d="M74.227,41.457c0,-1.322,1.071,-2.396,2.396,-2.396c1.323,0,2.394,1.072,2.394,2.396" fill="#BFBFBF"/>
    <path  d="M79.014,41.457c0,1.321,-1.07,2.394,-2.394,2.394c-1.324,0,-2.396,-1.07,-2.396,-2.394" fill="#E6E6E6"/>
    <circle  cy="41.457" r="1.197" fill="#383838" cx="76.621"/>
   </g>
   <g  id="E10pin">
    <path  d="M74.227,48.657c0,-1.322,1.071,-2.394,2.396,-2.394c1.323,0,2.394,1.07,2.394,2.394" fill="#BFBFBF"/>
    <path  d="M79.014,48.657c0,1.322,-1.07,2.395,-2.394,2.395c-1.324,0,-2.396,-1.072,-2.396,-2.395" fill="#E6E6E6"/>
    <circle  cy="48.657" r="1.197" fill="#383838" cx="76.621"/>
   </g>
   <g  id="A11pin">
    <path  d="M81.428,19.858c0,-1.322,1.069,-2.396,2.394,-2.396s2.395,1.072,2.395,2.396" fill="#BFBFBF"/>
    <path  d="M86.214,19.858c0,1.319,-1.07,2.393,-2.395,2.393s-2.395,-1.072,-2.395,-2.393l0,0" fill="#E6E6E6"/>
    <circle  cy="19.857" r="1.196" fill="#383838" cx="83.821"/>
   </g>
   <g  id="B11pin">
    <path  d="M81.428,27.058c0,-1.322,1.069,-2.396,2.394,-2.396s2.395,1.071,2.395,2.396" fill="#BFBFBF"/>
    <path  d="M86.214,27.058c0,1.321,-1.07,2.393,-2.395,2.393s-2.395,-1.07,-2.395,-2.393" fill="#E6E6E6"/>
    <circle  cy="27.057" r="1.197" fill="#383838" cx="83.821"/>
   </g>
   <g  id="C11pin">
    <path  d="M81.428,34.256c0,-1.319,1.069,-2.394,2.394,-2.394s2.395,1.072,2.395,2.394" fill="#BFBFBF"/>
    <path  d="M86.214,34.256c0,1.322,-1.07,2.396,-2.395,2.396s-2.395,-1.072,-2.395,-2.396l0,0" fill="#E6E6E6"/>
    <circle  cy="34.257" r="1.196" fill="#383838" cx="83.821"/>
   </g>
   <g  id="D11pin">
    <path  d="M81.428,41.457c0,-1.322,1.069,-2.396,2.394,-2.396s2.395,1.072,2.395,2.396" fill="#BFBFBF"/>
    <path  d="M86.214,41.457c0,1.321,-1.07,2.394,-2.395,2.394s-2.395,-1.07,-2.395,-2.394" fill="#E6E6E6"/>
    <circle  cy="41.457" r="1.197" fill="#383838" cx="83.821"/>
   </g>
   <g  id="E11pin">
    <path  d="M81.428,48.657c0,-1.322,1.069,-2.394,2.394,-2.394s2.395,1.07,2.395,2.394" fill="#BFBFBF"/>
    <path  d="M86.214,48.657c0,1.322,-1.07,2.395,-2.395,2.395s-2.395,-1.072,-2.395,-2.395" fill="#E6E6E6"/>
    <circle  cy="48.657" r="1.197" fill="#383838" cx="83.821"/>
   </g>
   <g  id="A12pin">
    <path  d="M88.626,19.858c0,-1.322,1.072,-2.396,2.396,-2.396c1.318,0,2.393,1.072,2.393,2.396" fill="#BFBFBF"/>
    <path  d="M93.414,19.858c0,1.319,-1.072,2.393,-2.393,2.393c-1.322,0,-2.396,-1.072,-2.396,-2.393l0,0" fill="#E6E6E6"/>
    <circle  cy="19.857" r="1.196" fill="#383838" cx="91.022"/>
   </g>
   <g  id="B12pin">
    <path  d="M88.626,27.058c0,-1.322,1.072,-2.396,2.396,-2.396c1.318,0,2.393,1.071,2.393,2.396" fill="#BFBFBF"/>
    <path  d="M93.414,27.058c0,1.321,-1.072,2.393,-2.393,2.393c-1.322,0,-2.396,-1.07,-2.396,-2.393" fill="#E6E6E6"/>
    <circle  cy="27.057" r="1.197" fill="#383838" cx="91.022"/>
   </g>
   <g  id="C12pin">
    <path  d="M88.626,34.256c0,-1.319,1.072,-2.394,2.396,-2.394c1.318,0,2.393,1.072,2.393,2.394" fill="#BFBFBF"/>
    <path  d="M93.414,34.256c0,1.322,-1.072,2.396,-2.393,2.396c-1.322,0,-2.396,-1.072,-2.396,-2.396l0,0" fill="#E6E6E6"/>
    <circle  cy="34.257" r="1.196" fill="#383838" cx="91.022"/>
   </g>
   <g  id="D12pin">
    <path  d="M88.626,41.457c0,-1.322,1.072,-2.396,2.396,-2.396c1.318,0,2.393,1.072,2.393,2.396" fill="#BFBFBF"/>
    <path  d="M93.414,41.457c0,1.321,-1.072,2.394,-2.393,2.394c-1.322,0,-2.396,-1.07,-2.396,-2.394" fill="#E6E6E6"/>
    <circle  cy="41.457" r="1.197" fill="#383838" cx="91.022"/>
   </g>
   <g  id="E12pin">
    <path  d="M88.626,48.657c0,-1.322,1.072,-2.394,2.396,-2.394c1.318,0,2.393,1.07,2.393,2.394" fill="#BFBFBF"/>
    <path  d="M93.414,48.657c0,1.322,-1.072,2.395,-2.393,2.395c-1.322,0,-2.396,-1.072,-2.396,-2.395" fill="#E6E6E6"/>
    <circle  cy="48.657" r="1.197" fill="#383838" cx="91.022"/>
   </g>
   <g  id="A13pin">
    <path  d="M95.826,19.858c0,-1.322,1.072,-2.396,2.396,-2.396c1.322,0,2.393,1.072,2.393,2.396" fill="#BFBFBF"/>
    <path  d="M100.614,19.858c0,1.319,-1.069,2.393,-2.393,2.393s-2.396,-1.072,-2.396,-2.393l0,0" fill="#E6E6E6"/>
    <circle  cy="19.857" r="1.196" fill="#383838" cx="98.221"/>
   </g>
   <g  id="B13pin">
    <path  d="M95.826,27.058c0,-1.322,1.072,-2.396,2.396,-2.396c1.322,0,2.393,1.071,2.393,2.396" fill="#BFBFBF"/>
    <path  d="M100.614,27.058c0,1.321,-1.069,2.393,-2.393,2.393s-2.396,-1.07,-2.396,-2.393" fill="#E6E6E6"/>
    <circle  cy="27.057" r="1.197" fill="#383838" cx="98.221"/>
   </g>
   <g  id="C13pin">
    <path  d="M95.826,34.256c0,-1.319,1.072,-2.394,2.396,-2.394c1.322,0,2.393,1.072,2.393,2.394" fill="#BFBFBF"/>
    <path  d="M100.614,34.256c0,1.322,-1.069,2.396,-2.393,2.396s-2.396,-1.072,-2.396,-2.396l0,0" fill="#E6E6E6"/>
    <circle  cy="34.257" r="1.196" fill="#383838" cx="98.221"/>
   </g>
   <g  id="D13pin">
    <path  d="M95.826,41.457c0,-1.322,1.072,-2.396,2.396,-2.396c1.322,0,2.393,1.072,2.393,2.396" fill="#BFBFBF"/>
    <path  d="M100.614,41.457c0,1.321,-1.069,2.394,-2.393,2.394s-2.396,-1.07,-2.396,-2.394" fill="#E6E6E6"/>
    <circle  cy="41.457" r="1.197" fill="#383838" cx="98.221"/>
   </g>
   <g  id="E13pin">
    <path  d="M95.826,48.657c0,-1.322,1.072,-2.394,2.396,-2.394c1.322,0,2.393,1.07,2.393,2.394" fill="#BFBFBF"/>
    <path  d="M100.614,48.657c0,1.322,-1.069,2.395,-2.393,2.395s-2.396,-1.072,-2.396,-2.395" fill="#E6E6E6"/>
    <circle  cy="48.657" r="1.197" fill="#383838" cx="98.221"/>
   </g>
   <g  id="A14pin">
    <path  d="M103.028,19.858c0,-1.322,1.07,-2.396,2.394,-2.396c1.322,0,2.396,1.072,2.396,2.396" fill="#BFBFBF"/>
    <path  d="M107.815,19.858c0,1.319,-1.071,2.393,-2.396,2.393c-1.322,0,-2.394,-1.072,-2.394,-2.393l0,0" fill="#E6E6E6"/>
    <circle  cy="19.857" r="1.196" fill="#383838" cx="105.419"/>
   </g>
   <g  id="B14pin">
    <path  d="M103.028,27.058c0,-1.322,1.07,-2.396,2.394,-2.396c1.322,0,2.396,1.071,2.396,2.396" fill="#BFBFBF"/>
    <path  d="M107.815,27.058c0,1.321,-1.071,2.393,-2.396,2.393c-1.322,0,-2.394,-1.07,-2.394,-2.393" fill="#E6E6E6"/>
    <circle  cy="27.057" r="1.197" fill="#383838" cx="105.419"/>
   </g>
   <g  id="C14pin">
    <path  d="M103.028,34.256c0,-1.319,1.07,-2.394,2.394,-2.394c1.322,0,2.396,1.072,2.396,2.394" fill="#BFBFBF"/>
    <path  d="M107.815,34.256c0,1.322,-1.071,2.396,-2.396,2.396c-1.322,0,-2.394,-1.072,-2.394,-2.396l0,0" fill="#E6E6E6"/>
    <circle  cy="34.257" r="1.196" fill="#383838" cx="105.419"/>
   </g>
   <g  id="D14pin">
    <path  d="M103.028,41.457c0,-1.322,1.07,-2.396,2.394,-2.396c1.322,0,2.396,1.072,2.396,2.396" fill="#BFBFBF"/>
    <path  d="M107.815,41.457c0,1.321,-1.071,2.394,-2.396,2.394c-1.322,0,-2.394,-1.07,-2.394,-2.394" fill="#E6E6E6"/>
    <circle  cy="41.457" r="1.197" fill="#383838" cx="105.419"/>
   </g>
   <g  id="E14pin">
    <path  d="M103.028,48.657c0,-1.322,1.07,-2.394,2.394,-2.394c1.322,0,2.396,1.07,2.396,2.394" fill="#BFBFBF"/>
    <path  d="M107.815,48.657c0,1.322,-1.071,2.395,-2.396,2.395c-1.322,0,-2.394,-1.072,-2.394,-2.395" fill="#E6E6E6"/>
    <circle  cy="48.657" r="1.197" fill="#383838" cx="105.419"/>
   </g>
   <g  id="A15pin">
    <path  d="M110.227,19.858c0.002,-1.322,1.075,-2.394,2.397,-2.392c1.317,0.002,2.387,1.07,2.39,2.392" fill="#BFBFBF"/>
    <path  d="M115.014,19.858c0.002,1.319,-1.068,2.395,-2.39,2.396c-1.322,0.002,-2.396,-1.067,-2.397,-2.392c0,-0.002,0,-0.004,0,-0.006" fill="#E6E6E6"/>
    <circle  cy="19.857" r="1.196" fill="#383838" cx="112.621"/>
   </g>
   <g  id="B15pin">
    <path  d="M110.227,27.058c0.002,-1.322,1.075,-2.394,2.397,-2.392c1.317,0.002,2.387,1.071,2.39,2.392" fill="#BFBFBF"/>
    <path  d="M115.014,27.058c0.002,1.321,-1.068,2.395,-2.39,2.396c-1.322,0.002,-2.396,-1.068,-2.397,-2.39c0,-0.004,0,-0.006,0,-0.008" fill="#E6E6E6"/>
    <circle  cy="27.057" r="1.197" fill="#383838" cx="112.621"/>
   </g>
   <g  id="C15pin">
    <path  d="M110.227,34.256c0.002,-1.319,1.075,-2.392,2.397,-2.39c1.317,0.003,2.387,1.07,2.39,2.39" fill="#BFBFBF"/>
    <path  d="M115.014,34.256c0.002,1.322,-1.068,2.396,-2.39,2.397c-1.322,0.002,-2.396,-1.067,-2.397,-2.391c0,-0.002,0,-0.004,0,-0.008" fill="#E6E6E6"/>
    <circle  cy="34.257" r="1.196" fill="#383838" cx="112.621"/>
   </g>
   <g  id="D15pin">
    <path  d="M110.227,41.457c0.002,-1.322,1.075,-2.394,2.397,-2.392c1.317,0.002,2.387,1.07,2.39,2.392" fill="#BFBFBF"/>
    <path  d="M115.014,41.457c0.002,1.321,-1.068,2.396,-2.39,2.396c-1.322,0.002,-2.396,-1.067,-2.397,-2.391c0,-0.002,0,-0.004,0,-0.006" fill="#E6E6E6"/>
    <circle  cy="41.457" r="1.197" fill="#383838" cx="112.621"/>
   </g>
   <g  id="E15pin">
    <path  d="M110.227,48.657c0.002,-1.322,1.075,-2.394,2.397,-2.391c1.317,0.002,2.387,1.071,2.39,2.391" fill="#BFBFBF"/>
    <path  d="M115.014,48.657c0.002,1.322,-1.068,2.395,-2.39,2.396c-1.322,0.005,-2.396,-1.065,-2.397,-2.389c0,-0.002,0,-0.007,0,-0.009" fill="#E6E6E6"/>
    <circle  cy="48.657" r="1.197" fill="#383838" cx="112.621"/>
   </g>
   <g  id="A16pin">
    <path  d="M117.428,19.858c0.003,-1.322,1.073,-2.394,2.396,-2.392c1.318,0.002,2.389,1.07,2.391,2.392" fill="#BFBFBF"/>
    <path  d="M122.214,19.858c0.002,1.319,-1.066,2.395,-2.391,2.396s-2.395,-1.067,-2.396,-2.392c0,-0.002,0,-0.004,0,-0.006" fill="#E6E6E6"/>
    <circle  cy="19.857" r="1.196" fill="#383838" cx="119.821"/>
   </g>
   <g  id="B16pin">
    <path  d="M117.428,27.058c0.003,-1.322,1.073,-2.394,2.396,-2.392c1.318,0.002,2.389,1.071,2.391,2.392" fill="#BFBFBF"/>
    <path  d="M122.214,27.058c0.002,1.321,-1.066,2.395,-2.391,2.396s-2.395,-1.068,-2.396,-2.39c0,-0.004,0,-0.006,0,-0.008" fill="#E6E6E6"/>
    <circle  cy="27.057" r="1.197" fill="#383838" cx="119.821"/>
   </g>
   <g  id="C16pin">
    <path  d="M117.428,34.256c0.003,-1.319,1.073,-2.392,2.396,-2.39c1.318,0.003,2.389,1.07,2.391,2.39" fill="#BFBFBF"/>
    <path  d="M122.214,34.256c0.002,1.322,-1.066,2.396,-2.391,2.397s-2.395,-1.067,-2.396,-2.391c0,-0.002,0,-0.004,0,-0.008" fill="#E6E6E6"/>
    <circle  cy="34.257" r="1.196" fill="#383838" cx="119.821"/>
   </g>
   <g  id="D16pin">
    <path  d="M117.428,41.457c0.003,-1.322,1.073,-2.394,2.396,-2.392c1.318,0.002,2.389,1.07,2.391,2.392" fill="#BFBFBF"/>
    <path  d="M122.214,41.457c0.002,1.321,-1.066,2.396,-2.391,2.396c-1.322,0.002,-2.395,-1.067,-2.396,-2.391c0,-0.002,0,-0.004,0,-0.006" fill="#E6E6E6"/>
    <circle  cy="41.457" r="1.197" fill="#383838" cx="119.821"/>
   </g>
   <g  id="E16pin">
    <path  d="M117.428,48.657c0.003,-1.322,1.073,-2.394,2.396,-2.391c1.318,0.002,2.389,1.071,2.391,2.391" fill="#BFBFBF"/>
    <path  d="M122.214,48.657c0.002,1.322,-1.066,2.395,-2.391,2.396c-1.322,0.005,-2.395,-1.065,-2.396,-2.389c0,-0.002,0,-0.007,0,-0.009" fill="#E6E6E6"/>
    <circle  cy="48.657" r="1.197" fill="#383838" cx="119.821"/>
   </g>
   <g  id="A17pin">
    <path  d="M124.626,19.858c0.002,-1.322,1.074,-2.394,2.396,-2.392c1.318,0.002,2.389,1.07,2.391,2.392" fill="#BFBFBF"/>
    <path  d="M129.414,19.858c0.002,1.319,-1.067,2.395,-2.392,2.396c-1.321,0.002,-2.396,-1.067,-2.396,-2.392c0,-0.002,0,-0.004,0,-0.006" fill="#E6E6E6"/>
    <circle  cy="19.857" r="1.196" fill="#383838" cx="127.02"/>
   </g>
   <g  id="B17pin">
    <path  d="M124.626,27.058c0.002,-1.322,1.074,-2.394,2.396,-2.392c1.318,0.002,2.389,1.071,2.391,2.392" fill="#BFBFBF"/>
    <path  d="M129.414,27.058c0.002,1.321,-1.067,2.395,-2.392,2.396c-1.321,0.002,-2.396,-1.068,-2.396,-2.39c0,-0.004,0,-0.006,0,-0.008" fill="#E6E6E6"/>
    <circle  cy="27.057" r="1.197" fill="#383838" cx="127.02"/>
   </g>
   <g  id="C17pin">
    <path  d="M124.626,34.256c0.002,-1.319,1.074,-2.392,2.396,-2.39c1.318,0.003,2.389,1.07,2.391,2.39" fill="#BFBFBF"/>
    <path  d="M129.414,34.256c0.002,1.322,-1.067,2.396,-2.392,2.397c-1.321,0.002,-2.396,-1.067,-2.396,-2.391c0,-0.002,0,-0.004,0,-0.008" fill="#E6E6E6"/>
    <circle  cy="34.257" r="1.196" fill="#383838" cx="127.02"/>
   </g>
   <g  id="D17pin">
    <path  d="M124.626,41.457c0.002,-1.322,1.074,-2.394,2.396,-2.392c1.318,0.002,2.389,1.07,2.391,2.392" fill="#BFBFBF"/>
    <path  d="M129.414,41.457c0.002,1.321,-1.067,2.396,-2.392,2.396c-1.321,0.002,-2.396,-1.067,-2.396,-2.391c0,-0.002,0,-0.004,0,-0.006" fill="#E6E6E6"/>
    <circle  cy="41.457" r="1.197" fill="#383838" cx="127.02"/>
   </g>
   <g  id="E17pin">
    <path  d="M124.626,48.657c0.002,-1.322,1.074,-2.394,2.396,-2.391c1.318,0.002,2.389,1.071,2.391,2.391" fill="#BFBFBF"/>
    <path  d="M129.414,48.657c0.002,1.322,-1.067,2.395,-2.392,2.396c-1.321,0.005,-2.396,-1.065,-2.396,-2.389c0,-0.002,0,-0.007,0,-0.009" fill="#E6E6E6"/>
    <circle  cy="48.657" r="1.197" fill="#383838" cx="127.02"/>
   </g>
   <g  id="F1pin">
    <path  d="M9.427,70.256c0,-1.32,1.071,-2.395,2.395,-2.395c1.324,0,2.394,1.07,2.394,2.395" fill="#BFBFBF"/>
    <path  d="M14.214,70.256c0,1.322,-1.07,2.396,-2.394,2.396c-1.324,0,-2.395,-1.072,-2.395,-2.396l0,0" fill="#E6E6E6"/>
    <circle  cy="70.257" r="1.196" fill="#383838" cx="11.822"/>
   </g>
   <g  id="G1pin">
    <path  d="M9.427,77.457c0,-1.322,1.071,-2.396,2.395,-2.396c1.324,0,2.394,1.072,2.394,2.396" fill="#BFBFBF"/>
    <path  d="M14.214,77.457c0,1.32,-1.07,2.395,-2.394,2.395c-1.324,0,-2.395,-1.07,-2.395,-2.395l0,0" fill="#E6E6E6"/>
    <circle  cy="77.456" r="1.196" fill="#383838" cx="11.822"/>
   </g>
   <g  id="H1pin">
    <path  d="M9.427,84.657c0,-1.322,1.071,-2.394,2.395,-2.394c1.324,0,2.394,1.069,2.394,2.394" fill="#BFBFBF"/>
    <path  d="M14.214,84.657c0,1.321,-1.07,2.395,-2.394,2.395c-1.324,0,-2.395,-1.071,-2.395,-2.395" fill="#E6E6E6"/>
    <circle  cy="84.657" r="1.197" fill="#383838" cx="11.822"/>
   </g>
   <g  id="I1pin">
    <path  d="M9.427,91.857c0,-1.321,1.071,-2.396,2.395,-2.396c1.324,0,2.394,1.072,2.394,2.396" fill="#BFBFBF"/>
    <path  d="M14.214,91.857c0,1.319,-1.07,2.394,-2.394,2.394c-1.324,0,-2.395,-1.071,-2.395,-2.394l0,0" fill="#E6E6E6"/>
    <circle  cy="91.857" r="1.196" fill="#383838" cx="11.822"/>
   </g>
   <g  id="J1pin">
    <path  d="M9.427,99.059c0,-1.322,1.071,-2.396,2.395,-2.396c1.324,0,2.394,1.07,2.394,2.396" fill="#BFBFBF"/>
    <path  d="M14.214,99.059c0,1.32,-1.07,2.393,-2.394,2.393c-1.324,0,-2.395,-1.07,-2.395,-2.393l0,0" fill="#E6E6E6"/>
    <circle  cy="99.057" r="1.197" fill="#383838" cx="11.822"/>
   </g>
   <g  id="F2pin">
    <path  d="M16.627,70.256c0,-1.32,1.071,-2.395,2.395,-2.395c1.32,0,2.394,1.07,2.394,2.395" fill="#BFBFBF"/>
    <path  d="M21.414,70.256c0,1.322,-1.07,2.396,-2.393,2.396c-1.323,0,-2.396,-1.069,-2.396,-2.394c0,-0.002,0,-0.002,0,-0.004" fill="#E6E6E6"/>
    <circle  cy="70.257" r="1.196" fill="#383838" cx="19.022"/>
   </g>
   <g  id="G2pin">
    <path  d="M16.627,77.457c0,-1.322,1.071,-2.396,2.395,-2.396c1.32,0,2.394,1.072,2.394,2.396" fill="#BFBFBF"/>
    <path  d="M21.414,77.457c0,1.32,-1.07,2.396,-2.393,2.396c-1.323,0,-2.396,-1.07,-2.396,-2.395l0,-0.002" fill="#E6E6E6"/>
    <circle  cy="77.456" r="1.196" fill="#383838" cx="19.022"/>
   </g>
   <g  id="H2pin">
    <path  d="M16.627,84.657c0,-1.322,1.071,-2.394,2.395,-2.394c1.32,0,2.394,1.069,2.394,2.394" fill="#BFBFBF"/>
    <path  d="M21.414,84.657c0,1.321,-1.07,2.395,-2.393,2.395c-1.322,0.003,-2.396,-1.069,-2.396,-2.393c0,0,0,0,0,-0.002" fill="#E6E6E6"/>
    <circle  cy="84.657" r="1.197" fill="#383838" cx="19.022"/>
   </g>
   <g  id="I2pin">
    <path  d="M16.627,91.857c0,-1.321,1.071,-2.396,2.395,-2.396c1.32,0,2.394,1.072,2.394,2.396" fill="#BFBFBF"/>
    <path  d="M21.414,91.857c0,1.319,-1.07,2.394,-2.393,2.396c-1.322,0,-2.396,-1.069,-2.396,-2.394c0,-0.002,0,-0.002,0,-0.002" fill="#E6E6E6"/>
    <circle  cy="91.857" r="1.196" fill="#383838" cx="19.022"/>
   </g>
   <g  id="J2pin">
    <path  d="M16.627,99.059c0,-1.322,1.071,-2.396,2.395,-2.396c1.32,0,2.394,1.07,2.394,2.396" fill="#BFBFBF"/>
    <path  d="M21.414,99.059c0,1.32,-1.07,2.395,-2.393,2.395c-1.323,0,-2.396,-1.07,-2.396,-2.393l0,-0.002" fill="#E6E6E6"/>
    <circle  cy="99.057" r="1.197" fill="#383838" cx="19.022"/>
   </g>
   <g  id="F3pin">
    <path  d="M23.826,70.256c0,-1.32,1.072,-2.395,2.395,-2.395c1.321,0,2.395,1.07,2.395,2.395" fill="#BFBFBF"/>
    <path  d="M28.615,70.256c0,1.322,-1.072,2.396,-2.395,2.396c-1.321,0,-2.395,-1.072,-2.395,-2.396" fill="#E6E6E6"/>
    <circle  cy="70.257" r="1.196" fill="#383838" cx="26.221"/>
   </g>
   <g  id="G3pin">
    <path  d="M23.826,77.457c0,-1.322,1.072,-2.396,2.395,-2.396c1.321,0,2.395,1.072,2.395,2.396" fill="#BFBFBF"/>
    <path  d="M28.615,77.457c0,1.32,-1.072,2.395,-2.395,2.395c-1.321,0,-2.395,-1.07,-2.395,-2.395" fill="#E6E6E6"/>
    <circle  cy="77.456" r="1.196" fill="#383838" cx="26.221"/>
   </g>
   <g  id="H3pin">
    <path  d="M23.826,84.657c0,-1.322,1.072,-2.394,2.395,-2.394c1.321,0,2.395,1.069,2.395,2.394" fill="#BFBFBF"/>
    <path  d="M28.615,84.657c0,1.321,-1.072,2.395,-2.395,2.395c-1.321,0,-2.395,-1.071,-2.395,-2.395l0,0" fill="#E6E6E6"/>
    <circle  cy="84.657" r="1.197" fill="#383838" cx="26.221"/>
   </g>
   <g  id="I3pin">
    <path  d="M23.826,91.857c0,-1.321,1.072,-2.396,2.395,-2.396c1.321,0,2.395,1.072,2.395,2.396" fill="#BFBFBF"/>
    <path  d="M28.615,91.857c0,1.319,-1.072,2.394,-2.395,2.394c-1.321,0,-2.395,-1.071,-2.395,-2.394" fill="#E6E6E6"/>
    <circle  cy="91.857" r="1.196" fill="#383838" cx="26.221"/>
   </g>
   <g  id="J3pin">
    <path  d="M23.826,99.059c0,-1.322,1.072,-2.396,2.395,-2.396c1.321,0,2.395,1.07,2.395,2.396" fill="#BFBFBF"/>
    <path  d="M28.615,99.059c0,1.32,-1.072,2.393,-2.395,2.393c-1.321,0,-2.395,-1.07,-2.395,-2.393l0,0" fill="#E6E6E6"/>
    <circle  cy="99.057" r="1.197" fill="#383838" cx="26.221"/>
   </g>
   <g  id="F4pin">
    <path  d="M31.028,70.256c0,-1.32,1.072,-2.395,2.394,-2.395c1.322,0,2.395,1.07,2.395,2.395" fill="#BFBFBF"/>
    <path  d="M35.815,70.256c0,1.322,-1.071,2.396,-2.395,2.396c-1.32,0,-2.394,-1.072,-2.394,-2.396" fill="#E6E6E6"/>
    <circle  cy="70.257" r="1.196" fill="#383838" cx="33.42"/>
   </g>
   <g  id="G4pin">
    <path  d="M31.028,77.457c0,-1.322,1.072,-2.396,2.394,-2.396c1.322,0,2.395,1.072,2.395,2.396" fill="#BFBFBF"/>
    <path  d="M35.815,77.457c0,1.32,-1.071,2.395,-2.395,2.395c-1.32,0,-2.394,-1.07,-2.394,-2.395" fill="#E6E6E6"/>
    <circle  cy="77.456" r="1.196" fill="#383838" cx="33.42"/>
   </g>
   <g  id="H4pin">
    <path  d="M31.028,84.657c0,-1.322,1.072,-2.394,2.394,-2.394c1.322,0,2.395,1.069,2.395,2.394" fill="#BFBFBF"/>
    <path  d="M35.815,84.657c0,1.321,-1.071,2.395,-2.395,2.395c-1.32,0,-2.394,-1.071,-2.394,-2.395l0,0" fill="#E6E6E6"/>
    <circle  cy="84.657" r="1.197" fill="#383838" cx="33.42"/>
   </g>
   <g  id="I4pin">
    <path  d="M31.028,91.857c0,-1.321,1.072,-2.396,2.394,-2.396c1.322,0,2.395,1.072,2.395,2.396" fill="#BFBFBF"/>
    <path  d="M35.815,91.857c0,1.319,-1.071,2.394,-2.395,2.394c-1.32,0,-2.394,-1.071,-2.394,-2.394" fill="#E6E6E6"/>
    <circle  cy="91.857" r="1.196" fill="#383838" cx="33.42"/>
   </g>
   <g  id="J4pin">
    <path  d="M31.028,99.059c0,-1.322,1.072,-2.396,2.394,-2.396c1.322,0,2.395,1.07,2.395,2.396" fill="#BFBFBF"/>
    <path  d="M35.815,99.059c0,1.32,-1.071,2.393,-2.395,2.393c-1.32,0,-2.394,-1.07,-2.394,-2.393l0,0" fill="#E6E6E6"/>
    <circle  cy="99.057" r="1.197" fill="#383838" cx="33.42"/>
   </g>
   <g  id="F5pin">
    <path  d="M38.228,70.256c0,-1.32,1.07,-2.395,2.394,-2.395c1.324,0,2.395,1.07,2.395,2.395" fill="#BFBFBF"/>
    <path  d="M43.015,70.256c0,1.322,-1.071,2.396,-2.395,2.396c-1.324,0,-2.394,-1.072,-2.394,-2.396" fill="#E6E6E6"/>
    <circle  cy="70.257" r="1.196" fill="#383838" cx="40.62"/>
   </g>
   <g  id="G5pin">
    <path  d="M38.228,77.457c0,-1.322,1.07,-2.396,2.394,-2.396c1.324,0,2.395,1.072,2.395,2.396" fill="#BFBFBF"/>
    <path  d="M43.015,77.457c0,1.32,-1.071,2.395,-2.395,2.395c-1.324,0,-2.394,-1.07,-2.394,-2.395" fill="#E6E6E6"/>
    <circle  cy="77.456" r="1.196" fill="#383838" cx="40.62"/>
   </g>
   <g  id="H5pin">
    <path  d="M38.228,84.657c0,-1.322,1.07,-2.394,2.394,-2.394c1.324,0,2.395,1.069,2.395,2.394" fill="#BFBFBF"/>
    <path  d="M43.015,84.657c0,1.321,-1.071,2.395,-2.395,2.395c-1.324,0,-2.394,-1.071,-2.394,-2.395l0,0" fill="#E6E6E6"/>
    <circle  cy="84.657" r="1.197" fill="#383838" cx="40.62"/>
   </g>
   <g  id="I5pin">
    <path  d="M38.228,91.857c0,-1.321,1.07,-2.396,2.394,-2.396c1.324,0,2.395,1.072,2.395,2.396" fill="#BFBFBF"/>
    <path  d="M43.015,91.857c0,1.319,-1.071,2.394,-2.395,2.394c-1.324,0,-2.394,-1.071,-2.394,-2.394" fill="#E6E6E6"/>
    <circle  cy="91.857" r="1.196" fill="#383838" cx="40.62"/>
   </g>
   <g  id="J5pin">
    <path  d="M38.228,99.059c0,-1.322,1.07,-2.396,2.394,-2.396c1.324,0,2.395,1.07,2.395,2.396" fill="#BFBFBF"/>
    <path  d="M43.015,99.059c0,1.32,-1.071,2.393,-2.395,2.393c-1.324,0,-2.394,-1.07,-2.394,-2.393l0,0" fill="#E6E6E6"/>
    <circle  cy="99.057" r="1.197" fill="#383838" cx="40.62"/>
   </g>
   <g  id="F6pin">
    <path  d="M45.427,70.256c0,-1.32,1.071,-2.395,2.395,-2.395c1.324,0,2.394,1.07,2.394,2.395" fill="#BFBFBF"/>
    <path  d="M50.214,70.256c0,1.322,-1.07,2.396,-2.394,2.396c-1.324,0,-2.395,-1.072,-2.395,-2.396" fill="#E6E6E6"/>
    <circle  cy="70.257" r="1.196" fill="#383838" cx="47.822"/>
   </g>
   <g  id="G6pin">
    <path  d="M45.427,77.457c0,-1.322,1.071,-2.396,2.395,-2.396c1.324,0,2.394,1.072,2.394,2.396" fill="#BFBFBF"/>
    <path  d="M50.214,77.457c0,1.32,-1.07,2.395,-2.394,2.395c-1.324,0,-2.395,-1.07,-2.395,-2.395" fill="#E6E6E6"/>
    <circle  cy="77.456" r="1.196" fill="#383838" cx="47.822"/>
   </g>
   <g  id="H6pin">
    <path  d="M45.427,84.657c0,-1.322,1.071,-2.394,2.395,-2.394c1.324,0,2.394,1.069,2.394,2.394" fill="#BFBFBF"/>
    <path  d="M50.214,84.657c0,1.321,-1.07,2.395,-2.394,2.395c-1.324,0,-2.395,-1.071,-2.395,-2.395l0,0" fill="#E6E6E6"/>
    <circle  cy="84.657" r="1.197" fill="#383838" cx="47.822"/>
   </g>
   <g  id="I6pin">
    <path  d="M45.427,91.857c0,-1.321,1.071,-2.396,2.395,-2.396c1.324,0,2.394,1.072,2.394,2.396" fill="#BFBFBF"/>
    <path  d="M50.214,91.857c0,1.319,-1.07,2.394,-2.394,2.394c-1.324,0,-2.395,-1.071,-2.395,-2.394" fill="#E6E6E6"/>
    <circle  cy="91.857" r="1.196" fill="#383838" cx="47.822"/>
   </g>
   <g  id="J6pin">
    <path  d="M45.427,99.059c0,-1.322,1.071,-2.396,2.395,-2.396c1.324,0,2.394,1.07,2.394,2.396" fill="#BFBFBF"/>
    <path  d="M50.214,99.059c0,1.32,-1.07,2.393,-2.394,2.393c-1.324,0,-2.395,-1.07,-2.395,-2.393l0,0" fill="#E6E6E6"/>
    <circle  cy="99.057" r="1.197" fill="#383838" cx="47.822"/>
   </g>
   <g  id="F7pin">
    <path  d="M52.627,70.256c0,-1.32,1.071,-2.395,2.395,-2.395c1.32,0,2.394,1.07,2.394,2.395" fill="#BFBFBF"/>
    <path  d="M57.414,70.256c0,1.322,-1.072,2.396,-2.394,2.396s-2.395,-1.072,-2.395,-2.396" fill="#E6E6E6"/>
    <circle  cy="70.257" r="1.196" fill="#383838" cx="55.022"/>
   </g>
   <g  id="G7pin">
    <path  d="M52.627,77.457c0,-1.322,1.071,-2.396,2.395,-2.396c1.32,0,2.394,1.072,2.394,2.396" fill="#BFBFBF"/>
    <path  d="M57.414,77.457c0,1.32,-1.072,2.395,-2.394,2.395s-2.395,-1.07,-2.395,-2.395" fill="#E6E6E6"/>
    <circle  cy="77.456" r="1.196" fill="#383838" cx="55.022"/>
   </g>
   <g  id="H7pin">
    <path  d="M52.627,84.657c0,-1.322,1.071,-2.394,2.395,-2.394c1.32,0,2.394,1.069,2.394,2.394" fill="#BFBFBF"/>
    <path  d="M57.414,84.657c0,1.321,-1.072,2.395,-2.394,2.395s-2.395,-1.071,-2.395,-2.395l0,0" fill="#E6E6E6"/>
    <circle  cy="84.657" r="1.197" fill="#383838" cx="55.022"/>
   </g>
   <g  id="I7pin">
    <path  d="M52.627,91.857c0,-1.321,1.071,-2.396,2.395,-2.396c1.32,0,2.394,1.072,2.394,2.396" fill="#BFBFBF"/>
    <path  d="M57.414,91.857c0,1.319,-1.072,2.394,-2.394,2.394s-2.395,-1.071,-2.395,-2.394" fill="#E6E6E6"/>
    <circle  cy="91.857" r="1.196" fill="#383838" cx="55.022"/>
   </g>
   <g  id="J7pin">
    <path  d="M52.627,99.059c0,-1.322,1.071,-2.396,2.395,-2.396c1.32,0,2.394,1.07,2.394,2.396" fill="#BFBFBF"/>
    <path  d="M57.414,99.059c0,1.32,-1.072,2.393,-2.394,2.393s-2.395,-1.07,-2.395,-2.393l0,0" fill="#E6E6E6"/>
    <circle  cy="99.057" r="1.197" fill="#383838" cx="55.022"/>
   </g>
   <g  id="F8pin">
    <path  d="M59.826,70.256c0,-1.32,1.072,-2.395,2.395,-2.395c1.321,0,2.393,1.07,2.393,2.395" fill="#BFBFBF"/>
    <path  d="M64.614,70.256c0,1.322,-1.07,2.396,-2.393,2.396c-1.323,0,-2.395,-1.072,-2.395,-2.396" fill="#E6E6E6"/>
    <circle  cy="70.257" r="1.196" fill="#383838" cx="62.221"/>
   </g>
   <g  id="G8pin">
    <path  d="M59.826,77.457c0,-1.322,1.072,-2.396,2.395,-2.396c1.321,0,2.393,1.072,2.393,2.396" fill="#BFBFBF"/>
    <path  d="M64.614,77.457c0,1.32,-1.07,2.395,-2.393,2.395c-1.323,0,-2.395,-1.07,-2.395,-2.395" fill="#E6E6E6"/>
    <circle  cy="77.456" r="1.196" fill="#383838" cx="62.221"/>
   </g>
   <g  id="H8pin">
    <path  d="M59.826,84.657c0,-1.322,1.072,-2.394,2.395,-2.394c1.321,0,2.393,1.069,2.393,2.394" fill="#BFBFBF"/>
    <path  d="M64.614,84.657c0,1.321,-1.07,2.395,-2.393,2.395c-1.323,0,-2.395,-1.071,-2.395,-2.395l0,0" fill="#E6E6E6"/>
    <circle  cy="84.657" r="1.197" fill="#383838" cx="62.221"/>
   </g>
   <g  id="I8pin">
    <path  d="M59.826,91.857c0,-1.321,1.072,-2.396,2.395,-2.396c1.321,0,2.393,1.072,2.393,2.396" fill="#BFBFBF"/>
    <path  d="M64.614,91.857c0,1.319,-1.07,2.394,-2.393,2.394c-1.323,0,-2.395,-1.071,-2.395,-2.394" fill="#E6E6E6"/>
    <circle  cy="91.857" r="1.196" fill="#383838" cx="62.221"/>
   </g>
   <g  id="J8pin">
    <path  d="M59.826,99.059c0,-1.322,1.072,-2.396,2.395,-2.396c1.321,0,2.393,1.07,2.393,2.396" fill="#BFBFBF"/>
    <path  d="M64.614,99.059c0,1.32,-1.07,2.393,-2.393,2.393c-1.323,0,-2.395,-1.07,-2.395,-2.393l0,0" fill="#E6E6E6"/>
    <circle  cy="99.057" r="1.197" fill="#383838" cx="62.221"/>
   </g>
   <g  id="F9pin">
    <path  d="M67.028,70.256c0,-1.32,1.072,-2.395,2.393,-2.395c1.323,0,2.396,1.07,2.396,2.395" fill="#BFBFBF"/>
    <path  d="M71.815,70.256c0,1.322,-1.071,2.396,-2.396,2.396c-1.319,0,-2.393,-1.072,-2.393,-2.396" fill="#E6E6E6"/>
    <circle  cy="70.257" r="1.196" fill="#383838" cx="69.42"/>
   </g>
   <g  id="G9pin">
    <path  d="M67.028,77.457c0,-1.322,1.072,-2.396,2.393,-2.396c1.323,0,2.396,1.072,2.396,2.396" fill="#BFBFBF"/>
    <path  d="M71.815,77.457c0,1.32,-1.071,2.395,-2.396,2.395c-1.319,0,-2.393,-1.07,-2.393,-2.395" fill="#E6E6E6"/>
    <circle  cy="77.456" r="1.196" fill="#383838" cx="69.42"/>
   </g>
   <g  id="H9pin">
    <path  d="M67.028,84.657c0,-1.322,1.072,-2.394,2.393,-2.394c1.323,0,2.396,1.069,2.396,2.394" fill="#BFBFBF"/>
    <path  d="M71.815,84.657c0,1.321,-1.071,2.395,-2.396,2.395c-1.319,0,-2.393,-1.071,-2.393,-2.395l0,0" fill="#E6E6E6"/>
    <circle  cy="84.657" r="1.197" fill="#383838" cx="69.42"/>
   </g>
   <g  id="I9pin">
    <path  d="M67.028,91.857c0,-1.321,1.072,-2.396,2.393,-2.396c1.323,0,2.396,1.072,2.396,2.396" fill="#BFBFBF"/>
    <path  d="M71.815,91.857c0,1.319,-1.071,2.394,-2.396,2.394c-1.319,0,-2.393,-1.071,-2.393,-2.394" fill="#E6E6E6"/>
    <circle  cy="91.857" r="1.196" fill="#383838" cx="69.42"/>
   </g>
   <g  id="J9pin">
    <path  d="M67.028,99.059c0,-1.322,1.072,-2.396,2.393,-2.396c1.323,0,2.396,1.07,2.396,2.396" fill="#BFBFBF"/>
    <path  d="M71.815,99.059c0,1.32,-1.071,2.393,-2.396,2.393c-1.319,0,-2.393,-1.07,-2.393,-2.393l0,0" fill="#E6E6E6"/>
    <circle  cy="99.057" r="1.197" fill="#383838" cx="69.42"/>
   </g>
   <g  id="F10pin">
    <path  d="M74.227,70.256c0,-1.32,1.071,-2.395,2.396,-2.395c1.323,0,2.394,1.07,2.394,2.395" fill="#BFBFBF"/>
    <path  d="M79.014,70.256c0,1.322,-1.07,2.396,-2.394,2.396c-1.324,0,-2.396,-1.072,-2.396,-2.396" fill="#E6E6E6"/>
    <circle  cy="70.257" r="1.196" fill="#383838" cx="76.621"/>
   </g>
   <g  id="G10pin">
    <path  d="M74.227,77.457c0,-1.322,1.071,-2.396,2.396,-2.396c1.323,0,2.394,1.072,2.394,2.396" fill="#BFBFBF"/>
    <path  d="M79.014,77.457c0,1.32,-1.07,2.395,-2.394,2.395c-1.324,0,-2.396,-1.07,-2.396,-2.395" fill="#E6E6E6"/>
    <circle  cy="77.456" r="1.196" fill="#383838" cx="76.621"/>
   </g>
   <g  id="H10pin">
    <path  d="M74.227,84.657c0,-1.322,1.071,-2.394,2.396,-2.394c1.323,0,2.394,1.069,2.394,2.394" fill="#BFBFBF"/>
    <path  d="M79.014,84.657c0,1.321,-1.07,2.395,-2.394,2.395c-1.324,0,-2.396,-1.071,-2.396,-2.395l0,0" fill="#E6E6E6"/>
    <circle  cy="84.657" r="1.197" fill="#383838" cx="76.621"/>
   </g>
   <g  id="I10pin">
    <path  d="M74.227,91.857c0,-1.321,1.071,-2.396,2.396,-2.396c1.323,0,2.394,1.072,2.394,2.396" fill="#BFBFBF"/>
    <path  d="M79.014,91.857c0,1.319,-1.07,2.394,-2.394,2.394c-1.324,0,-2.396,-1.071,-2.396,-2.394" fill="#E6E6E6"/>
    <circle  cy="91.857" r="1.196" fill="#383838" cx="76.621"/>
   </g>
   <g  id="J10pin">
    <path  d="M74.227,99.059c0,-1.322,1.071,-2.396,2.396,-2.396c1.323,0,2.394,1.07,2.394,2.396" fill="#BFBFBF"/>
    <path  d="M79.014,99.059c0,1.32,-1.07,2.393,-2.394,2.393c-1.324,0,-2.396,-1.07,-2.396,-2.393l0,0" fill="#E6E6E6"/>
    <circle  cy="99.057" r="1.197" fill="#383838" cx="76.621"/>
   </g>
   <g  id="F11pin">
    <path  d="M81.428,70.256c0,-1.32,1.069,-2.395,2.394,-2.395s2.395,1.07,2.395,2.395" fill="#BFBFBF"/>
    <path  d="M86.214,70.256c0,1.322,-1.07,2.396,-2.395,2.396s-2.395,-1.072,-2.395,-2.396" fill="#E6E6E6"/>
    <circle  cy="70.257" r="1.196" fill="#383838" cx="83.821"/>
   </g>
   <g  id="G11pin">
    <path  d="M81.428,77.457c0,-1.322,1.069,-2.396,2.394,-2.396s2.395,1.072,2.395,2.396" fill="#BFBFBF"/>
    <path  d="M86.214,77.457c0,1.32,-1.07,2.395,-2.395,2.395s-2.395,-1.07,-2.395,-2.395" fill="#E6E6E6"/>
    <circle  cy="77.456" r="1.196" fill="#383838" cx="83.821"/>
   </g>
   <g  id="H11pin">
    <path  d="M81.428,84.657c0,-1.322,1.069,-2.394,2.394,-2.394s2.395,1.069,2.395,2.394" fill="#BFBFBF"/>
    <path  d="M86.214,84.657c0,1.321,-1.07,2.395,-2.395,2.395s-2.395,-1.071,-2.395,-2.395l0,0" fill="#E6E6E6"/>
    <circle  cy="84.657" r="1.197" fill="#383838" cx="83.821"/>
   </g>
   <g  id="I11pin">
    <path  d="M81.428,91.857c0,-1.321,1.069,-2.396,2.394,-2.396s2.395,1.072,2.395,2.396" fill="#BFBFBF"/>
    <path  d="M86.214,91.857c0,1.319,-1.07,2.394,-2.395,2.394s-2.395,-1.071,-2.395,-2.394" fill="#E6E6E6"/>
    <circle  cy="91.857" r="1.196" fill="#383838" cx="83.821"/>
   </g>
   <g  id="J11pin">
    <path  d="M81.428,99.059c0,-1.322,1.069,-2.396,2.394,-2.396s2.395,1.07,2.395,2.396" fill="#BFBFBF"/>
    <path  d="M86.214,99.059c0,1.32,-1.07,2.393,-2.395,2.393s-2.395,-1.07,-2.395,-2.393l0,0" fill="#E6E6E6"/>
    <circle  cy="99.057" r="1.197" fill="#383838" cx="83.821"/>
   </g>
   <g  id="F12pin">
    <path  d="M88.626,70.256c0,-1.32,1.072,-2.395,2.396,-2.395c1.318,0,2.393,1.07,2.393,2.395" fill="#BFBFBF"/>
    <path  d="M93.414,70.256c0,1.322,-1.072,2.396,-2.393,2.396c-1.322,0,-2.396,-1.072,-2.396,-2.396" fill="#E6E6E6"/>
    <circle  cy="70.257" r="1.196" fill="#383838" cx="91.022"/>
   </g>
   <g  id="G12pin">
    <path  d="M88.626,77.457c0,-1.322,1.072,-2.396,2.396,-2.396c1.318,0,2.393,1.072,2.393,2.396" fill="#BFBFBF"/>
    <path  d="M93.414,77.457c0,1.32,-1.072,2.395,-2.393,2.395c-1.322,0,-2.396,-1.07,-2.396,-2.395" fill="#E6E6E6"/>
    <circle  cy="77.456" r="1.196" fill="#383838" cx="91.022"/>
   </g>
   <g  id="H12pin">
    <path  d="M88.626,84.657c0,-1.322,1.072,-2.394,2.396,-2.394c1.318,0,2.393,1.069,2.393,2.394" fill="#BFBFBF"/>
    <path  d="M93.414,84.657c0,1.321,-1.072,2.395,-2.393,2.395c-1.322,0,-2.396,-1.071,-2.396,-2.395l0,0" fill="#E6E6E6"/>
    <circle  cy="84.657" r="1.197" fill="#383838" cx="91.022"/>
   </g>
   <g  id="I12pin">
    <path  d="M88.626,91.857c0,-1.321,1.072,-2.396,2.396,-2.396c1.318,0,2.393,1.072,2.393,2.396" fill="#BFBFBF"/>
    <path  d="M93.414,91.857c0,1.319,-1.072,2.394,-2.393,2.394c-1.322,0,-2.396,-1.071,-2.396,-2.394" fill="#E6E6E6"/>
    <circle  cy="91.857" r="1.196" fill="#383838" cx="91.022"/>
   </g>
   <g  id="J12pin">
    <path  d="M88.626,99.059c0,-1.322,1.072,-2.396,2.396,-2.396c1.318,0,2.393,1.07,2.393,2.396" fill="#BFBFBF"/>
    <path  d="M93.414,99.059c0,1.32,-1.072,2.393,-2.393,2.393c-1.322,0,-2.396,-1.07,-2.396,-2.393l0,0" fill="#E6E6E6"/>
    <circle  cy="99.057" r="1.197" fill="#383838" cx="91.022"/>
   </g>
   <g  id="F13pin">
    <path  d="M95.826,70.256c0,-1.32,1.072,-2.395,2.396,-2.395c1.322,0,2.393,1.07,2.393,2.395" fill="#BFBFBF"/>
    <path  d="M100.614,70.256c0,1.322,-1.069,2.396,-2.393,2.396s-2.396,-1.072,-2.396,-2.396" fill="#E6E6E6"/>
    <circle  cy="70.257" r="1.196" fill="#383838" cx="98.221"/>
   </g>
   <g  id="G13pin">
    <path  d="M95.826,77.457c0,-1.322,1.072,-2.396,2.396,-2.396c1.322,0,2.393,1.072,2.393,2.396" fill="#BFBFBF"/>
    <path  d="M100.614,77.457c0,1.32,-1.069,2.395,-2.393,2.395s-2.396,-1.07,-2.396,-2.395" fill="#E6E6E6"/>
    <circle  cy="77.456" r="1.196" fill="#383838" cx="98.221"/>
   </g>
   <g  id="H13pin">
    <path  d="M95.826,84.657c0,-1.322,1.072,-2.394,2.396,-2.394c1.322,0,2.393,1.069,2.393,2.394" fill="#BFBFBF"/>
    <path  d="M100.614,84.657c0,1.321,-1.069,2.395,-2.393,2.395s-2.396,-1.071,-2.396,-2.395l0,0" fill="#E6E6E6"/>
    <circle  cy="84.657" r="1.197" fill="#383838" cx="98.221"/>
   </g>
   <g  id="I13pin">
    <path  d="M95.826,91.857c0,-1.321,1.072,-2.396,2.396,-2.396c1.322,0,2.393,1.072,2.393,2.396" fill="#BFBFBF"/>
    <path  d="M100.614,91.857c0,1.319,-1.069,2.394,-2.393,2.394s-2.396,-1.071,-2.396,-2.394" fill="#E6E6E6"/>
    <circle  cy="91.857" r="1.196" fill="#383838" cx="98.221"/>
   </g>
   <g  id="J13pin">
    <path  d="M95.826,99.059c0,-1.322,1.072,-2.396,2.396,-2.396c1.322,0,2.393,1.07,2.393,2.396" fill="#BFBFBF"/>
    <path  d="M100.614,99.059c0,1.32,-1.069,2.393,-2.393,2.393s-2.396,-1.07,-2.396,-2.393l0,0" fill="#E6E6E6"/>
    <circle  cy="99.057" r="1.197" fill="#383838" cx="98.221"/>
   </g>
   <g  id="F14pin">
    <path  d="M103.028,70.256c0,-1.32,1.07,-2.395,2.394,-2.395c1.322,0,2.396,1.07,2.396,2.395" fill="#BFBFBF"/>
    <path  d="M107.815,70.256c0,1.322,-1.071,2.396,-2.396,2.396c-1.322,0,-2.394,-1.072,-2.394,-2.396" fill="#E6E6E6"/>
    <circle  cy="70.257" r="1.196" fill="#383838" cx="105.419"/>
   </g>
   <g  id="G14pin">
    <path  d="M103.028,77.457c0,-1.322,1.07,-2.396,2.394,-2.396c1.322,0,2.396,1.072,2.396,2.396" fill="#BFBFBF"/>
    <path  d="M107.815,77.457c0,1.32,-1.071,2.395,-2.396,2.395c-1.322,0,-2.394,-1.07,-2.394,-2.395" fill="#E6E6E6"/>
    <circle  cy="77.456" r="1.196" fill="#383838" cx="105.419"/>
   </g>
   <g  id="H14pin">
    <path  d="M103.028,84.657c0,-1.322,1.07,-2.394,2.394,-2.394c1.322,0,2.396,1.069,2.396,2.394" fill="#BFBFBF"/>
    <path  d="M107.815,84.657c0,1.321,-1.071,2.395,-2.396,2.395c-1.322,0,-2.394,-1.071,-2.394,-2.395l0,0" fill="#E6E6E6"/>
    <circle  cy="84.657" r="1.197" fill="#383838" cx="105.419"/>
   </g>
   <g  id="I14pin">
    <path  d="M103.028,91.857c0,-1.321,1.07,-2.396,2.394,-2.396c1.322,0,2.396,1.072,2.396,2.396" fill="#BFBFBF"/>
    <path  d="M107.815,91.857c0,1.319,-1.071,2.394,-2.396,2.394c-1.322,0,-2.394,-1.071,-2.394,-2.394" fill="#E6E6E6"/>
    <circle  cy="91.857" r="1.196" fill="#383838" cx="105.419"/>
   </g>
   <g  id="J14pin">
    <path  d="M103.028,99.059c0,-1.322,1.07,-2.396,2.394,-2.396c1.322,0,2.396,1.07,2.396,2.396" fill="#BFBFBF"/>
    <path  d="M107.815,99.059c0,1.32,-1.071,2.393,-2.396,2.393c-1.322,0,-2.394,-1.07,-2.394,-2.393l0,0" fill="#E6E6E6"/>
    <circle  cy="99.057" r="1.197" fill="#383838" cx="105.419"/>
   </g>
   <g  id="F15pin">
    <path  d="M110.227,70.256c0.002,-1.32,1.075,-2.392,2.397,-2.39c1.317,0.003,2.387,1.069,2.39,2.39" fill="#BFBFBF"/>
    <path  d="M115.014,70.256c0.002,1.322,-1.068,2.396,-2.39,2.396c-1.322,0.003,-2.396,-1.066,-2.397,-2.391c0,-0.002,0,-0.004,0,-0.008" fill="#E6E6E6"/>
    <circle  cy="70.257" r="1.196" fill="#383838" cx="112.621"/>
   </g>
   <g  id="G15pin">
    <path  d="M110.227,77.457c0.002,-1.322,1.075,-2.395,2.397,-2.393c1.317,0.002,2.387,1.07,2.39,2.393" fill="#BFBFBF"/>
    <path  d="M115.014,77.457c0.002,1.32,-1.068,2.396,-2.39,2.396c-1.322,0.002,-2.396,-1.067,-2.397,-2.392c0,-0.002,0,-0.004,0,-0.006" fill="#E6E6E6"/>
    <circle  cy="77.456" r="1.196" fill="#383838" cx="112.621"/>
   </g>
   <g  id="H15pin">
    <path  d="M110.227,84.657c0.002,-1.322,1.075,-2.394,2.397,-2.392c1.317,0.002,2.387,1.071,2.39,2.392" fill="#BFBFBF"/>
    <path  d="M115.014,84.657c0.002,1.321,-1.068,2.395,-2.39,2.396c-1.322,0.002,-2.396,-1.064,-2.397,-2.389c0,-0.002,0,-0.007,0,-0.01" fill="#E6E6E6"/>
    <circle  cy="84.657" r="1.197" fill="#383838" cx="112.621"/>
   </g>
   <g  id="I15pin">
    <path  d="M110.227,91.857c0.002,-1.321,1.075,-2.394,2.397,-2.392c1.317,0.002,2.387,1.07,2.39,2.392" fill="#BFBFBF"/>
    <path  d="M115.014,91.857c0.002,1.319,-1.068,2.396,-2.39,2.396c-1.322,0.002,-2.396,-1.066,-2.397,-2.393c0,-0.002,0,-0.004,0,-0.006" fill="#E6E6E6"/>
    <circle  cy="91.857" r="1.196" fill="#383838" cx="112.621"/>
   </g>
   <g  id="J15pin">
    <path  d="M110.227,99.059c0.002,-1.322,1.075,-2.395,2.397,-2.393c1.317,0.002,2.387,1.068,2.39,2.393" fill="#BFBFBF"/>
    <path  d="M115.014,99.059c0.002,1.32,-1.068,2.395,-2.39,2.396c-1.322,0.002,-2.396,-1.068,-2.397,-2.39c0,-0.004,0,-0.006,0,-0.008" fill="#E6E6E6"/>
    <circle  cy="99.057" r="1.197" fill="#383838" cx="112.621"/>
   </g>
   <g  id="F16pin">
    <path  d="M117.428,70.256c0.003,-1.32,1.073,-2.392,2.396,-2.39c1.318,0.003,2.389,1.069,2.391,2.39" fill="#BFBFBF"/>
    <path  d="M122.214,70.256c0.002,1.322,-1.066,2.396,-2.391,2.396c-1.324,0.002,-2.395,-1.066,-2.396,-2.391c0,-0.002,0,-0.004,0,-0.008" fill="#E6E6E6"/>
    <circle  cy="70.257" r="1.196" fill="#383838" cx="119.821"/>
   </g>
   <g  id="G16pin">
    <path  d="M117.428,77.457c0.003,-1.322,1.073,-2.395,2.396,-2.393c1.318,0.002,2.389,1.07,2.391,2.393" fill="#BFBFBF"/>
    <path  d="M122.214,77.457c0.002,1.32,-1.066,2.396,-2.391,2.396c-1.322,0.002,-2.395,-1.067,-2.396,-2.392c0,-0.002,0,-0.004,0,-0.006" fill="#E6E6E6"/>
    <circle  cy="77.456" r="1.196" fill="#383838" cx="119.821"/>
   </g>
   <g  id="H16pin">
    <path  d="M117.428,84.657c0.003,-1.322,1.073,-2.394,2.396,-2.392c1.318,0.002,2.389,1.071,2.391,2.392" fill="#BFBFBF"/>
    <path  d="M122.214,84.657c0.002,1.321,-1.066,2.395,-2.391,2.396c-1.324,0.002,-2.395,-1.064,-2.396,-2.389c0,-0.002,0,-0.007,0,-0.01" fill="#E6E6E6"/>
    <circle  cy="84.657" r="1.197" fill="#383838" cx="119.821"/>
   </g>
   <g  id="I16pin">
    <path  d="M117.428,91.857c0.003,-1.321,1.073,-2.394,2.396,-2.392c1.318,0.002,2.389,1.07,2.391,2.392" fill="#BFBFBF"/>
    <path  d="M122.214,91.857c0.002,1.319,-1.066,2.396,-2.391,2.396s-2.395,-1.066,-2.396,-2.393c0,-0.002,0,-0.004,0,-0.006" fill="#E6E6E6"/>
    <circle  cy="91.857" r="1.196" fill="#383838" cx="119.821"/>
   </g>
   <g  id="J16pin">
    <path  d="M117.428,99.059c0.003,-1.322,1.073,-2.395,2.396,-2.393c1.318,0.002,2.389,1.068,2.391,2.393" fill="#BFBFBF"/>
    <path  d="M122.214,99.059c0.002,1.32,-1.066,2.395,-2.391,2.396s-2.395,-1.068,-2.396,-2.39c0,-0.004,0,-0.006,0,-0.008" fill="#E6E6E6"/>
    <circle  cy="99.057" r="1.197" fill="#383838" cx="119.821"/>
   </g>
   <g  id="F17pin">
    <path  d="M124.626,70.256c0.002,-1.32,1.074,-2.392,2.396,-2.39c1.318,0.003,2.389,1.069,2.391,2.39" fill="#BFBFBF"/>
    <path  d="M129.414,70.256c0.002,1.322,-1.067,2.396,-2.392,2.396c-1.321,0.003,-2.396,-1.066,-2.396,-2.391c0,-0.002,0,-0.004,0,-0.008" fill="#E6E6E6"/>
    <circle  cy="70.257" r="1.196" fill="#383838" cx="127.02"/>
   </g>
   <g  id="G17pin">
    <path  d="M124.626,77.457c0.002,-1.322,1.074,-2.395,2.396,-2.393c1.318,0.002,2.389,1.07,2.391,2.393" fill="#BFBFBF"/>
    <path  d="M129.414,77.457c0.002,1.32,-1.067,2.396,-2.392,2.396c-1.321,0.002,-2.396,-1.067,-2.396,-2.392c0,-0.002,0,-0.004,0,-0.006" fill="#E6E6E6"/>
    <circle  cy="77.456" r="1.196" fill="#383838" cx="127.02"/>
   </g>
   <g  id="H17pin">
    <path  d="M124.626,84.657c0.002,-1.322,1.074,-2.394,2.396,-2.392c1.318,0.002,2.389,1.071,2.391,2.392" fill="#BFBFBF"/>
    <path  d="M129.414,84.657c0.002,1.321,-1.067,2.395,-2.392,2.396c-1.321,0.002,-2.396,-1.064,-2.396,-2.389c0,-0.002,0,-0.007,0,-0.01" fill="#E6E6E6"/>
    <circle  cy="84.657" r="1.197" fill="#383838" cx="127.02"/>
   </g>
   <g  id="I17pin">
    <path  d="M124.626,91.857c0.002,-1.321,1.074,-2.394,2.396,-2.392c1.318,0.002,2.389,1.07,2.391,2.392" fill="#BFBFBF"/>
    <path  d="M129.414,91.857c0.002,1.319,-1.067,2.396,-2.392,2.396c-1.321,0.002,-2.396,-1.066,-2.396,-2.393c0,-0.002,0,-0.004,0,-0.006" fill="#E6E6E6"/>
    <circle  cy="91.857" r="1.196" fill="#383838" cx="127.02"/>
   </g>
   <g  id="J17pin">
    <path  d="M124.626,99.059c0.002,-1.322,1.074,-2.395,2.396,-2.393c1.318,0.002,2.389,1.068,2.391,2.393" fill="#BFBFBF"/>
    <path  d="M129.414,99.059c0.002,1.32,-1.067,2.395,-2.392,2.396c-1.321,0.002,-2.396,-1.068,-2.396,-2.39c0,-0.004,0,-0.006,0,-0.008" fill="#E6E6E6"/>
    <circle  cy="99.057" r="1.197" fill="#383838" cx="127.02"/>
   </g>
  </g>
 </g>
</g>
</g></g><g partID='854111690'><g transform='translate(90.0949,0)' ><g transform='matrix(1,0,0,1,0,0)'  ><g xmlns="http://www.w3.org/2000/svg" id="breadboard">
 <defs xmlns="http://www.w3.org/2000/svg">
  <style xmlns="http://www.w3.org/2000/svg" type="text/css"><![CDATA[     .str0 {stroke:#1E1E1E;stroke-width:0.0762}     .str3 {stroke:#78786E;stroke-width:0.0762}     .str2 {stroke:#78786E;stroke-width:0.25}     .str1 {stroke:#8C8C8C;stroke-width:0.762}     .fil3 {fill:none}     .fil1 {fill:#1E1E1E}     .fil6 {fill:#323232}     .fil2 {fill:#C3C3C3}     .fil4 {fill:#CBCBCB}     .fil0 {fill:#E6E6E6}     .fil5 {fill:#F0F0F0}     .fil7 {fill:url(#id0)}    ]]></style>
  <linearGradient xmlns="http://www.w3.org/2000/svg" x1="13.0731" id="id0" y1="13.9748" x2="13.0731" y2="12.0132" gradientUnits="userSpaceOnUse">
   <stop xmlns="http://www.w3.org/2000/svg" offset="0" style="stop-color:#A8A89E"/>
   <stop xmlns="http://www.w3.org/2000/svg" offset="1" style="stop-color:white"/>
  </linearGradient>
 </defs>
 <g xmlns="http://www.w3.org/2000/svg" id="Capa_x0020_1">
  <metadata xmlns="http://www.w3.org/2000/svg" id="CorelCorpID_0Corel-Layer"/>
  <g xmlns="http://www.w3.org/2000/svg" id="_144824656">
   <g xmlns="http://www.w3.org/2000/svg">
    <rect xmlns="http://www.w3.org/2000/svg" height="47.1013" y="1.73877" x="2.50951" id="_144825976" class="fil0" width="31.0334" rx="8.10312" ry="8.10312"/>
    <ellipse xmlns="http://www.w3.org/2000/svg" cy="8.08526" id="_144821416" class="fil1 str0" cx="18.2372" rx="2.93746" ry="3.03591"/>
   </g>
   <g xmlns="http://www.w3.org/2000/svg">
    <rect xmlns="http://www.w3.org/2000/svg" height="31.1253" y="18.4986" x="2.81027" id="_144822136" class="fil2" width="31.7772"/>
    <rect xmlns="http://www.w3.org/2000/svg" height="10.9934" y="12.3885" x="2.80233" id="_144818704" class="fil2" width="2.63452" rx="0.19389" ry="0.19389"/>
    <rect xmlns="http://www.w3.org/2000/svg" height="10.9934" y="12.3885" x="31.9992" id="_144826744" class="fil2" width="2.60249" rx="0.19389" ry="0.19389"/>
    <rect xmlns="http://www.w3.org/2000/svg" height="10.3522" y="43.7224" x="2.80233" id="_144823288" class="fil2" width="2.63452" rx="0.646299" ry="0.646299"/>
    <rect xmlns="http://www.w3.org/2000/svg" height="5.73823" y="48.3364" x="29.982" id="_144827656" class="fil2" width="4.60517" rx="0.646299" ry="0.646299"/>
    <rect xmlns="http://www.w3.org/2000/svg" height="36.5658" y="15.0415" x="4.85861" id="_144829120" class="fil2" width="27.6879"/>
    <rect xmlns="http://www.w3.org/2000/svg" height="41.7475" y="12.327" x="3.88715" id="_144820960" class="fil2" width="29.2963"/>
   </g>
   <g xmlns="http://www.w3.org/2000/svg">
    <line xmlns="http://www.w3.org/2000/svg" x1="21.5059" id="_144824728" y1="53.6723" class="fil3 str1" x2="21.5133" y2="62.8965"/>
    <line xmlns="http://www.w3.org/2000/svg" x1="28.7059" id="_144822016" y1="53.6661" class="fil3 str1" x2="28.7133" y2="62.8903"/>
    <line xmlns="http://www.w3.org/2000/svg" x1="7.10589" id="_144829456" y1="53.6661" class="fil3 str1" x2="7.11326" y2="62.8903"/>
    <line xmlns="http://www.w3.org/2000/svg" x1="14.3059" id="_144819832" y1="53.6661" class="fil3 str1" x2="14.3133" y2="62.8903"/>
   </g>
   <g xmlns="http://www.w3.org/2000/svg">
    <g xmlns="http://www.w3.org/2000/svg">
     <rect xmlns="http://www.w3.org/2000/svg" height="2.664" y="19.4824" x="26.4793" id="_144826048" class="fil4" width="7.17931"/>
     <rect xmlns="http://www.w3.org/2000/svg" height="2.664" y="24.8682" x="26.4793" id="_144823816" class="fil4" width="7.17931"/>
     <rect xmlns="http://www.w3.org/2000/svg" height="2.664" y="30.2539" x="26.483" id="_144826288" class="fil4" width="7.17562"/>
     <rect xmlns="http://www.w3.org/2000/svg" height="2.664" y="35.6397" x="26.4796" id="_144823936" class="fil4" width="7.17902"/>
     <rect xmlns="http://www.w3.org/2000/svg" height="2.664" y="41.0255" x="26.4793" id="_144820816" class="fil4" width="7.17931"/>
    </g>
    <g xmlns="http://www.w3.org/2000/svg">
     <rect xmlns="http://www.w3.org/2000/svg" height="2.664" y="19.4824" x="2.45254" id="_144817768" class="fil4" width="1.99559"/>
     <rect xmlns="http://www.w3.org/2000/svg" height="2.664" y="24.8682" x="2.45254" id="_144819880" class="fil4" width="1.99559"/>
     <rect xmlns="http://www.w3.org/2000/svg" height="2.664" y="30.2539" x="2.45254" id="_144822112" class="fil4" width="1.99559"/>
     <rect xmlns="http://www.w3.org/2000/svg" height="2.664" y="35.6397" x="2.45254" id="_144820576" class="fil4" width="1.99559"/>
     <rect xmlns="http://www.w3.org/2000/svg" height="2.664" y="41.0255" x="2.45254" id="_144821872" class="fil4" width="1.99559"/>
    </g>
   </g>
   <g xmlns="http://www.w3.org/2000/svg">
    <g xmlns="http://www.w3.org/2000/svg">
     <rect xmlns="http://www.w3.org/2000/svg" height="2.66406" y="19.4818" x="11.7439" id="_144818008" class="fil1" width="2.664"/>
     <rect xmlns="http://www.w3.org/2000/svg" height="2.66406" y="19.4818" x="16.8463" id="_144821656" class="fil1" width="2.664"/>
     <rect xmlns="http://www.w3.org/2000/svg" height="2.66406" y="19.4818" x="21.6652" id="_144829816" class="fil1" width="2.664"/>
     <path xmlns="http://www.w3.org/2000/svg" d="M26.4841,19.4817l4.48668,0c0.587055,0,1.06668,0.237827,1.06668,0.528945l0,1.60611c0,0.291118,-0.479622,0.529228,-1.06668,0.529228l-4.48668,0,0,-2.66428z" id="_144831328" class="fil1"/>
     <rect xmlns="http://www.w3.org/2000/svg" height="2.66406" y="19.4818" x="4.44898" id="_144827224" class="fil1" width="4.8566"/>
    </g>
    <g xmlns="http://www.w3.org/2000/svg">
     <rect xmlns="http://www.w3.org/2000/svg" height="2.66406" y="24.8676" x="11.7439" id="_144824824" class="fil1" width="2.664"/>
     <rect xmlns="http://www.w3.org/2000/svg" height="2.66406" y="24.8676" x="16.8463" id="_144817504" class="fil1" width="2.664"/>
     <rect xmlns="http://www.w3.org/2000/svg" height="2.66406" y="24.8676" x="21.6652" id="_144825928" class="fil1" width="2.664"/>
     <path xmlns="http://www.w3.org/2000/svg" d="M26.4841,24.8675l4.48668,0c0.587055,0,1.06668,0.237827,1.06668,0.528945l0,1.60611c0,0.291118,-0.479622,0.529228,-1.06668,0.529228l-4.48668,0,0,-2.66428z" id="_144829048" class="fil1"/>
     <rect xmlns="http://www.w3.org/2000/svg" height="2.66406" y="24.8676" x="4.44898" id="_144825112" class="fil1" width="4.8566"/>
    </g>
    <g xmlns="http://www.w3.org/2000/svg">
     <rect xmlns="http://www.w3.org/2000/svg" height="2.66406" y="30.2533" x="11.7439" id="_144821512" class="fil1" width="2.664"/>
     <rect xmlns="http://www.w3.org/2000/svg" height="2.66406" y="30.2533" x="16.8463" id="_144822784" class="fil1" width="2.664"/>
     <rect xmlns="http://www.w3.org/2000/svg" height="2.66406" y="30.2533" x="21.6652" id="_144822664" class="fil1" width="2.664"/>
     <path xmlns="http://www.w3.org/2000/svg" d="M26.4841,30.2533l4.48668,0c0.587055,0,1.06668,0.237827,1.06668,0.528945l0,1.60611c0,0.291118,-0.479622,0.529228,-1.06668,0.529228l-4.48668,0,0,-2.66428z" id="_144820672" class="fil1"/>
     <rect xmlns="http://www.w3.org/2000/svg" height="2.66406" y="30.2533" x="4.44898" id="_144824752" class="fil1" width="4.8566"/>
    </g>
    <g xmlns="http://www.w3.org/2000/svg">
     <rect xmlns="http://www.w3.org/2000/svg" height="2.66406" y="35.6391" x="11.7439" id="_144828472" class="fil1" width="2.664"/>
     <rect xmlns="http://www.w3.org/2000/svg" height="2.66406" y="35.6391" x="16.8463" id="_144821968" class="fil1" width="2.664"/>
     <rect xmlns="http://www.w3.org/2000/svg" height="2.66406" y="35.6391" x="21.6652" id="_144828256" class="fil1" width="2.664"/>
     <path xmlns="http://www.w3.org/2000/svg" d="M26.4841,35.6391l4.48668,0c0.587055,0,1.06668,0.237827,1.06668,0.528945l0,1.60611c0,0.291118,-0.479622,0.529228,-1.06668,0.529228l-4.48668,0,0,-2.66428z" id="_144828376" class="fil1"/>
     <rect xmlns="http://www.w3.org/2000/svg" height="2.66406" y="35.6391" x="4.44898" id="_144823504" class="fil1" width="4.8566"/>
    </g>
    <g xmlns="http://www.w3.org/2000/svg">
     <rect xmlns="http://www.w3.org/2000/svg" height="2.66406" y="41.025" x="11.7439" id="_144825784" class="fil1" width="2.664"/>
     <rect xmlns="http://www.w3.org/2000/svg" height="2.66406" y="41.025" x="16.8463" id="_144826936" class="fil1" width="2.664"/>
     <rect xmlns="http://www.w3.org/2000/svg" height="2.66406" y="41.025" x="21.6652" id="_144826912" class="fil1" width="2.664"/>
     <path xmlns="http://www.w3.org/2000/svg" d="M26.4841,41.025l4.48668,0c0.587055,0,1.06668,0.237827,1.06668,0.528945l0,1.60611c0,0.291118,-0.479622,0.529228,-1.06668,0.529228l-4.48668,0,0,-2.66428z" id="_144827152" class="fil1"/>
     <rect xmlns="http://www.w3.org/2000/svg" height="2.66406" y="41.025" x="4.44898" id="_144827080" class="fil1" width="4.8566"/>
    </g>
   </g>
   <g xmlns="http://www.w3.org/2000/svg">
    <g xmlns="http://www.w3.org/2000/svg">
     <g xmlns="http://www.w3.org/2000/svg">
      <g xmlns="http://www.w3.org/2000/svg">
       <rect xmlns="http://www.w3.org/2000/svg" height="39.6357" y="12.0137" x="9.30671" id="_144817024" class="fil5" width="2.43751"/>
       <rect xmlns="http://www.w3.org/2000/svg" height="2.12326" y="11.215" x="9.31876" id="_144817168" class="fil5" width="2.42306" rx="0.166677" ry="0.166677"/>
      </g>
      <g xmlns="http://www.w3.org/2000/svg">
       <rect xmlns="http://www.w3.org/2000/svg" height="39.6357" y="12.0137" x="14.4091" id="_144817240" class="fil5" width="2.43751"/>
       <rect xmlns="http://www.w3.org/2000/svg" height="2.12326" y="11.215" x="14.4211" id="_144816328" class="fil5" width="2.42306" rx="0.166677" ry="0.166677"/>
      </g>
      <g xmlns="http://www.w3.org/2000/svg">
       <rect xmlns="http://www.w3.org/2000/svg" height="39.6357" y="12.0137" x="19.5114" id="_144815368" class="fil5" width="2.43751"/>
       <rect xmlns="http://www.w3.org/2000/svg" height="2.12326" y="11.215" x="19.5235" id="_144818248" class="fil5" width="2.42306" rx="0.166677" ry="0.166677"/>
      </g>
      <g xmlns="http://www.w3.org/2000/svg">
       <rect xmlns="http://www.w3.org/2000/svg" height="39.6357" y="12.0137" x="24.3303" id="_144817960" class="fil5" width="2.43751"/>
       <rect xmlns="http://www.w3.org/2000/svg" height="2.12326" y="11.215" x="24.3424" id="_144818128" class="fil5" width="2.42306" rx="0.166677" ry="0.166677"/>
      </g>
     </g>
     <g xmlns="http://www.w3.org/2000/svg">
      <g xmlns="http://www.w3.org/2000/svg">
       <rect xmlns="http://www.w3.org/2000/svg" height="3.55861" y="15.9148" x="2.81424" id="_144817864" class="fil5" width="30.714"/>
       <rect xmlns="http://www.w3.org/2000/svg" height="3.55833" y="15.9231" x="1.88787" id="_144817720" class="fil5" width="3.41603" rx="0.256252" ry="0.256252"/>
       <rect xmlns="http://www.w3.org/2000/svg" height="3.55833" y="15.9231" x="30.5178" id="_144817408" class="fil5" width="3.5606" rx="0.256252" ry="0.256252"/>
      </g>
      <g xmlns="http://www.w3.org/2000/svg">
       <rect xmlns="http://www.w3.org/2000/svg" height="2.66684" y="22.1899" x="2.81424" id="_144817744" class="fil5" width="30.714"/>
       <rect xmlns="http://www.w3.org/2000/svg" height="2.66663" y="22.196" x="1.88787" id="_144828448" class="fil5" width="3.41603" rx="0.256252" ry="0.256252"/>
       <rect xmlns="http://www.w3.org/2000/svg" height="2.66663" y="22.196" x="30.5178" id="_144815320" class="fil5" width="3.5606" rx="0.256252" ry="0.256252"/>
      </g>
      <g xmlns="http://www.w3.org/2000/svg">
       <rect xmlns="http://www.w3.org/2000/svg" height="2.707" y="27.5355" x="2.81424" id="_144826264" class="fil5" width="30.714"/>
       <rect xmlns="http://www.w3.org/2000/svg" height="2.70679" y="27.5417" x="1.88787" id="_144825736" class="fil5" width="3.41603" rx="0.256252" ry="0.256252"/>
       <rect xmlns="http://www.w3.org/2000/svg" height="2.70679" y="27.5417" x="30.5178" id="_144821320" class="fil5" width="3.5606" rx="0.256252" ry="0.256252"/>
      </g>
      <g xmlns="http://www.w3.org/2000/svg">
       <rect xmlns="http://www.w3.org/2000/svg" height="2.707" y="32.9213" x="2.81424" id="_144828688" class="fil5" width="30.714"/>
       <rect xmlns="http://www.w3.org/2000/svg" height="2.70679" y="32.9275" x="1.88787" id="_144819808" class="fil5" width="3.41603" rx="0.256252" ry="0.256252"/>
       <rect xmlns="http://www.w3.org/2000/svg" height="2.70679" y="32.9275" x="30.5178" id="_144820288" class="fil5" width="3.5606" rx="0.256252" ry="0.256252"/>
      </g>
      <g xmlns="http://www.w3.org/2000/svg">
       <rect xmlns="http://www.w3.org/2000/svg" height="2.707" y="38.3071" x="2.81424" id="_144820888" class="fil5" width="30.714"/>
       <rect xmlns="http://www.w3.org/2000/svg" height="2.70679" y="38.3134" x="1.88787" id="_144819568" class="fil5" width="3.41603" rx="0.256252" ry="0.256252"/>
       <rect xmlns="http://www.w3.org/2000/svg" height="2.70679" y="38.3134" x="30.5178" id="_144818536" class="fil5" width="3.5606" rx="0.256252" ry="0.256252"/>
      </g>
     </g>
    </g>
    <g xmlns="http://www.w3.org/2000/svg">
     <g xmlns="http://www.w3.org/2000/svg">
      <rect xmlns="http://www.w3.org/2000/svg" height="7.32104" y="45.1397" x="2.24334" id="_144827800" class="fil5" width="31.7772"/>
      <rect xmlns="http://www.w3.org/2000/svg" height="2.58576" y="43.7026" x="2.2354" id="_144826000" class="fil5" width="2.63452" rx="0.19389" ry="0.19389"/>
      <rect xmlns="http://www.w3.org/2000/svg" height="2.58576" y="43.7026" x="31.4323" id="_144827488" class="fil5" width="2.60249" rx="0.19389" ry="0.19389"/>
      <rect xmlns="http://www.w3.org/2000/svg" height="2.43496" y="51.0727" x="2.2354" id="_144825808" class="fil5" width="2.63452" rx="0.646299" ry="0.646299"/>
      <rect xmlns="http://www.w3.org/2000/svg" height="2.43496" y="51.0727" x="31.4323" id="_144825208" class="fil5" width="2.58803" rx="0.646299" ry="0.646299"/>
      <rect xmlns="http://www.w3.org/2000/svg" height="8.60066" y="44.3265" x="4.29168" id="_144821752" class="fil5" width="27.6879"/>
      <rect xmlns="http://www.w3.org/2000/svg" height="9.8195" y="43.6881" x="3.32022" id="_144821560" class="fil5" width="29.2963"/>
     </g>
     <g xmlns="http://www.w3.org/2000/svg">
      <rect xmlns="http://www.w3.org/2000/svg" height="6.33317" y="11.2085" x="1.90233" id="_144822040" class="fil5" width="9.03146" rx="1.26652" ry="1.26652"/>
      <rect xmlns="http://www.w3.org/2000/svg" height="6.33317" y="11.2085" x="25.1334" id="_144822280" class="fil5" width="8.93055" rx="1.26652" ry="1.26652"/>
     </g>
    </g>
   </g>
   <g xmlns="http://www.w3.org/2000/svg">
    <g xmlns="http://www.w3.org/2000/svg">
     <g xmlns="http://www.w3.org/2000/svg">
      <rect xmlns="http://www.w3.org/2000/svg" height="1.96186" y="13.9538" x="11.7454" id="_144827680" class="fil6" width="2.65578"/>
      <rect xmlns="http://www.w3.org/2000/svg" height="1.96186" y="13.9538" x="16.8477" id="_144824176" class="fil6" width="2.65578"/>
      <rect xmlns="http://www.w3.org/2000/svg" height="1.96186" y="13.9538" x="21.9563" id="_144822616" class="fil6" width="2.25383"/>
     </g>
     <g xmlns="http://www.w3.org/2000/svg">
      <path xmlns="http://www.w3.org/2000/svg" d="M11.7442,14.8178c2.66343,0,2.66343,0,2.66343,0" id="_144828880" class="fil3 str2"/>
      <path xmlns="http://www.w3.org/2000/svg" d="M16.8471,14.6945c0.834236,-0.00510236,1.29231,0.401953,1.34532,1.21465" id="_144823480" class="fil3 str3"/>
     </g>
    </g>
    <g xmlns="http://www.w3.org/2000/svg">
     <rect xmlns="http://www.w3.org/2000/svg" height="1.96186" y="12.0132" x="11.7454" id="_144817384" class="fil7" width="2.65578"/>
     <rect xmlns="http://www.w3.org/2000/svg" height="1.96186" y="12.0132" x="16.8477" id="_144825040" class="fil7" width="2.65578"/>
     <rect xmlns="http://www.w3.org/2000/svg" height="1.96186" y="12.0132" x="21.9563" id="_144817648" class="fil7" width="2.25383"/>
    </g>
   </g>
  </g>
 </g>
 <rect xmlns="http://www.w3.org/2000/svg" height="4" y="58.7631" x="5.06049" id="connector8" fill="none" width="4"/>
 <rect xmlns="http://www.w3.org/2000/svg" height="4" y="58.7631" x="12.4017" id="connector9" fill="none" width="4"/>
 <rect xmlns="http://www.w3.org/2000/svg" height="4" y="58.9514" x="19.3664" id="connector10" fill="none" width="4"/>
 <rect xmlns="http://www.w3.org/2000/svg" height="4" y="58.7631" x="26.7075" id="connector11" fill="none" width="4"/>
</g>
</g></g></g><path stroke='#6d6d6d' stroke-width='2.51989' stroke-linecap='round' stroke-linejoin='round' fill='none' d='M58.2727,17.5631L61.2965,17.5631' />
<path stroke='#6d6d6d' stroke-width='2.51989' stroke-linecap='round' stroke-linejoin='round' fill='none' d='M18.9604,17.5631L15.9365,17.5631' />
<g partID='854114060'><g transform='translate(15.9365,13.5438)' ><g  id="breadboard">
 <rect  height="0.989505" y="2.90618" x="0" id="connector0pin" fill="none" width="1.00796"/>
 <rect  height="0.989505" y="2.90519" x="40.9653" id="connector1pin" fill="none" width="1.00796"/>
 <g  x1="0" stroke-width="2.51989" id="connector0leg" y1="4.062" x2="3" fill="none" y2="4.062" stroke="#6D6D6D" stroke-linecap="round"/>
 <g  x1="45.002" stroke-width="2.51989" id="connector1leg" y1="4.062" x2="42.002" fill="none" y2="4.062" stroke="#6D6D6D" stroke-linecap="round"/>
 <line  stroke-width="2.51989" x1="6.28158" y1="4.01937" x2="3.02387" fill="none" y2="4.01937" stroke="#6D6D6D"/>
 <line  stroke-width="2.51989" x1="42.3361" y1="4.01937" x2="39.3274" fill="none" y2="4.01937" stroke="#6D6D6D"/>
 <g >
  <path  d="M39.3274,5.8549c0,0.561049,-1.20451,1.50504,-2.78901,0.752024c-0.66525,0.318621,-1.49077,1.31406,-2.63076,1.31406L11.5623,7.92099c-1.13899,0,-1.96854,-0.995442,-2.63379,-1.31406C7.349,7.36192,6.26545,6.4209,6.26545,5.8549l0,-3.78981c0,-0.564018,1.08254,-1.50504,2.66302,-0.752024C9.59473,0.993463,10.4223,0,11.5623,0L33.9076,0c1.14,0,1.96551,0.993463,2.63076,1.31307c1.57745,-0.753013,2.78901,0.188006,2.78901,0.752024L39.3274,5.8549z" fill="#96CCAB"/>
 </g>
 <g  opacity="0.6">
  <path  d="M39.3274,4.7615l-2.24169,0c-2.32233,-0.14051,-2.01994,2.02552,-4.3463,2.02552L12.8575,6.78702c-2.32434,0,-2.02297,-2.16504,-4.34731,-2.02552l-2.23766,0L6.27251,3.15553l2.23867,0c2.32434,0.141499,2.02297,-2.02552,4.34731,-2.02552L32.7384,1.13001c2.32737,0,2.02498,2.16603,4.3463,2.02552l2.24068,0L39.3274,4.7615L39.3274,4.7615z" fill="#DCFFED"/>
 </g>
 <g >
  <g >
   <polygon  fill="#C6C6C6" points="34.1405,4.27169,34.1253,3.88381,24.5447,4.18858,24.5447,4.18858,24.332,4.09952,22.3665,4.16087,22.1569,4.26477,22.17,4.65265,22.3847,4.74171,24.3461,4.67937,24.5558,4.57646,24.5558,4.57646"/>
  </g>
 </g>
 <g  opacity="0.2">
  <path  d="M32.6517,6.28534c1.42021,-0.0385907,2.52392,-0.732234,3.25469,-1.65049c-0.903128,0.608546,-2.41506,1.08054,-4.435,1.08054L14.1305,5.71538c-2.02297,0,-3.55203,-0.471994,-4.45617,-1.08054c0.731775,0.918261,1.85464,1.6119,3.27485,1.65049L32.6517,6.28534z" fill="#67C996"/>
 </g>
 <g  opacity="0.4">
  <path  d="M32.6517,1.50405c1.42021,0.0385907,2.52392,0.731244,3.25469,1.64951c-0.903128,-0.611514,-2.41506,-1.08153,-4.435,-1.08153L14.1305,2.07202c-2.02297,0,-3.55203,0.470015,-4.45617,1.08153c0.731775,-0.918261,1.85464,-1.61091,3.27485,-1.64951L32.6517,1.50405z" fill="#FFFFFF"/>
 </g>
 <g  opacity="0.5">
  <path  d="M33.451,2.58657L33.451,2.58657l-21.2275,-0.0801499c-0.156233,0,-0.282227,-0.124678,-0.28122,-0.278051c0,-0.152384,0.127002,-0.276072,0.282227,-0.276072c0,0,0,0,0.00100796,0l21.2275,0.0791604c0.154217,0,0.280212,0.124678,0.280212,0.278051C33.7353,2.46288,33.6093,2.58657,33.451,2.58657L33.451,2.58657z" opacity="0.4" fill="#FFFFFF"/>
 </g>
 <g >
  <g >
   <g >
    <g >
     <polygon  fill="#A3A3A3" points="35.8842,3.63643,33.9379,3.69778,33.958,4.47058,35.9044,4.40924"/>
    </g>
   </g>
   <g  opacity="0.6">
    <g >
     <polygon  fill="#6D6D6D" points="39.399,3.12486,35.8711,3.2624,35.9145,4.79118,39.4403,4.65463"/>
    </g>
   </g>
   <g >
    <g transform="matrix(0.9995, -0.0323, 0.0323, 0.9995, -0.125793, 0.89194)">
     <rect  height="0.162279" y="4.18858" x="22.1599" fill="#B5B5B5" width="11.7931"/>
    </g>
    <polygon  fill="#878787" points="22.3816,4.7427,24.3149,4.67937,24.5165,4.57646,33.953,4.27763,33.953,4.16483,22.1649,4.53787,22.17,4.65265"/>
    <polygon  fill="#CCCCCC" points="33.9439,3.88975,24.5064,4.18957,24.5064,4.18957,24.2947,4.09952,22.3635,4.16087,22.1569,4.26477,22.1599,4.37559,33.9479,4.00156"/>
   </g>
   <g >
    <g transform="matrix(0.9995, -0.0323, 0.0323, 0.9995, -0.125793, 0.89194)">
     <rect  height="0.162279" y="4.18858" x="22.1599" fill="#B5B5B5" width="11.7931"/>
    </g>
    <polygon  fill="#878787" points="22.3816,4.7427,24.3149,4.67937,24.5165,4.57646,33.953,4.27763,33.953,4.16483,22.1649,4.53787,22.17,4.65265"/>
    <polygon  fill="#CCCCCC" points="33.9439,3.88975,24.5064,4.18957,24.5064,4.18957,24.2947,4.09952,22.3635,4.16087,22.1569,4.26477,22.1599,4.37559,33.9479,4.00156"/>
   </g>
   <g >
    <g transform="matrix(0.9995, -0.0323, 0.0323, 0.9995, -0.125793, 0.89194)">
     <rect  height="0.162279" y="4.18858" x="22.1599" fill="#B5B5B5" width="11.7931"/>
    </g>
    <polygon  fill="#CCCCCC" points="33.9439,3.88975,24.5064,4.18957,24.5064,4.18957,24.2947,4.09952,22.3635,4.16087,22.1569,4.26477,22.1599,4.37559,33.9479,4.00156"/>
   </g>
  </g>
  <g >
   <polygon  fill="#C4BF2A" points="26.4346,4.12822,30.5632,3.9976,30.5632,3.9976"/>
   <g >
    <rect  height="0.163268" y="4.17472" x="26.4377" opacity="0.5" fill="#CEBF00" width="4.13161"/>
    <g transform="matrix(-0.9995, 0.0318, -0.0318, -0.9995, 57.1424, 7.89407)">
     <rect  height="0.112804" y="4.337" x="26.4417" opacity="0.5" fill="#CEBF00" width="4.1306"/>
    </g>
    <rect  height="0.110825" y="4.06291" x="26.4366" opacity="0.5" fill="#CEBF00" width="4.1306"/>
   </g>
  </g>
 </g>
 <g >
  <g >
   <g >
    <g >
     <polygon  fill="#A3A3A3" points="9.82252,3.54639,11.7649,3.51076,11.784,4.28258,9.83865,4.3182"/>
    </g>
   </g>
   <g  opacity="0.6">
    <g >
     <polygon  fill="#6D6D6D" points="6.28158,3.20897,9.81244,3.17136,9.84772,4.70015,6.31887,4.73775"/>
    </g>
   </g>
   <g >
    <g transform="matrix(-0.9998, 0.0182, -0.0182, -0.9998, 35.4068, 7.26584)">
     <rect  height="0.163268" y="3.70966" x="11.7739" fill="#B5B5B5" width="11.7911"/>
    </g>
    <polygon  fill="#878787" points="23.3614,3.98177,21.4271,4.01541,21.2195,3.9224,11.78,4.09061,11.7769,3.9788,23.564,3.76705,23.566,3.87985"/>
    <polygon  fill="#CCCCCC" points="11.7689,3.70273,21.2084,3.5355,21.2084,3.53451,21.417,3.43457,23.3513,3.39994,23.562,3.49295,23.564,3.60378,11.7719,3.81355"/>
   </g>
   <g >
    <g transform="matrix(-0.9998, 0.0182, -0.0182, -0.9998, 35.4068, 7.26584)">
     <rect  height="0.163268" y="3.70966" x="11.7739" fill="#B5B5B5" width="11.7911"/>
    </g>
    <polygon  fill="#878787" points="23.3614,3.98177,21.4271,4.01541,21.2195,3.9224,11.78,4.09061,11.7769,3.9788,23.564,3.76705,23.566,3.87985"/>
    <polygon  fill="#CCCCCC" points="11.7689,3.70273,21.2084,3.5355,21.2084,3.53451,21.417,3.43457,23.3513,3.39994,23.562,3.49295,23.564,3.60378,11.7719,3.81355"/>
   </g>
   <g >
    <g transform="matrix(-0.9998, 0.0182, -0.0182, -0.9998, 35.4068, 7.26584)">
     <rect  height="0.163268" y="3.70966" x="11.7739" fill="#B5B5B5" width="11.7911"/>
    </g>
    <polygon  fill="#CCCCCC" points="11.7689,3.70273,21.2084,3.5355,21.2084,3.53451,21.417,3.43457,23.3513,3.39994,23.562,3.49295,23.564,3.60378,11.7719,3.81355"/>
   </g>
  </g>
  <g >
   <polygon  fill="#C4BF2A" points="19.2812,3.56816,15.1526,3.64237,15.1526,3.64237"/>
   <g >
    <rect  height="0.163268" y="3.71757" x="15.1576" opacity="0.5" fill="#CEBF00" width="4.12959"/>
    <g transform="matrix(0.9998, -0.0187, 0.0187, 0.9998, -0.071968, 0.316939)">
     <rect  height="0.112804" y="3.87985" x="15.1576" opacity="0.5" fill="#CEBF00" width="4.1306"/>
    </g>
    <rect  height="0.111814" y="3.60576" x="15.1526" opacity="0.5" fill="#CEBF00" width="4.12959"/>
   </g>
  </g>
 </g>
</g>
</g></g><g partID='854111800'><line stroke-linecap='round' stroke='#8c0000' x1='97.1554' y1='60.7631' x2='118.898' y2='89.5666' stroke-width='3.2' /><line stroke-linecap='round' stroke='#cc1414' x1='97.1554' y1='60.7631' x2='118.898' y2='89.5666' stroke-width='1.6' /></g><g partID='854111870'><line stroke-linecap='round' stroke='#000000' x1='111.461' y1='60.9514' x2='111.697' y2='89.5666' stroke-width='3.2' /><line stroke-linecap='round' stroke='#404040' x1='111.461' y1='60.9514' x2='111.697' y2='89.5666' stroke-width='1.6' /></g><g partID='854111940'><line stroke-linecap='round' stroke='#1b5bb3' x1='104.497' y1='60.7631' x2='90.0965' y2='89.5631' stroke-width='3.2' /><line stroke-linecap='round' stroke='#418dd9' x1='104.497' y1='60.7631' x2='90.0965' y2='89.5631' stroke-width='1.6' /></g><g partID='854112490'><line stroke-linecap='round' stroke='#1b5bb3' x1='61.2965' y1='197.563' x2='25.297' y2='89.5631' stroke-width='3.2' /><line stroke-linecap='round' stroke='#418dd9' x1='61.2965' y1='197.563' x2='25.297' y2='89.5631' stroke-width='1.6' /></g><g partID='854112680'><line stroke-linecap='round' stroke='#ad6a38' x1='68.4965' y1='197.563' x2='32.498' y2='89.5631' stroke-width='3.2' /><line stroke-linecap='round' stroke='#ef6100' x1='68.4965' y1='197.563' x2='32.498' y2='89.5631' stroke-width='1.6' /></g><g partID='854112750'><line stroke-linecap='round' stroke='#8c0000' x1='54.096' y1='197.563' x2='90.0965' y2='168.764' stroke-width='3.2' /><line stroke-linecap='round' stroke='#cc1414' x1='54.096' y1='197.563' x2='90.0965' y2='168.764' stroke-width='1.6' /></g><g partID='854112820'><line stroke-linecap='round' stroke='#000000' x1='46.8959' y1='197.563' x2='82.897' y2='168.764' stroke-width='3.2' /><line stroke-linecap='round' stroke='#404040' x1='46.8959' y1='197.563' x2='82.897' y2='168.764' stroke-width='1.6' /></g><g partID='854115830'><line stroke-linecap='round' stroke='#000000' x1='15.9365' y1='17.5631' x2='61.2965' y2='89.5631' stroke-width='3.2' /><line stroke-linecap='round' stroke='#404040' x1='15.9365' y1='17.5631' x2='61.2965' y2='89.5631' stroke-width='1.6' /></g><g partID='854116060'><line stroke-linecap='round' stroke='#1b5bb3' x1='61.2965' y1='17.5631' x2='68.498' y2='89.5631' stroke-width='3.2' /><line stroke-linecap='round' stroke='#418dd9' x1='61.2965' y1='17.5631' x2='68.498' y2='89.5631' stroke-width='1.6' /></g></svg>